<?xml version="1.0" encoding="UTF-8"?>
<!DOCTYPE svg PUBLIC "-//W3C//DTD SVG 1.1//EN" "http://www.w3.org/Graphics/SVG/1.1/DTD/svg11.dtd">
<!-- Creator: CorelDRAW 2021 (64-Bit) -->
<svg xmlns="http://www.w3.org/2000/svg" xml:space="preserve" width="40mm" height="40mm" version="1.1" style="shape-rendering:geometricPrecision; text-rendering:geometricPrecision; image-rendering:optimizeQuality; fill-rule:evenodd; clip-rule:evenodd"
viewBox="0 0 4000 4000"
 xmlns:xlink="http://www.w3.org/1999/xlink"
 xmlns:xodm="http://www.corel.com/coreldraw/odm/2003">
 <defs>
  <style type="text/css">
   <![CDATA[
    .fil0 {fill:#16325B}
    .fil1 {fill:#4192D9}
   ]]>
  </style>
 </defs>
 <g id="Layer_x0020_1">
  <metadata id="CorelCorpID_0Corel-Layer"/>
  <g id="_1649579214880">
   <path class="fil0" d="M2232.56 2731.96c-81.99,-74.39 -310.94,-286.11 -363.35,-353.82 -103.94,-123.43 -140.32,-171.29 -217.14,-310.39 -30.21,-57.1 -44.29,-139.52 -58.35,-190.49 -16.53,-59.87 -15.37,-124.26 -8.54,-190.33 3.68,-35.64 14.09,-72.53 39.11,-103.2 90.3,-110.71 269.23,94.53 322.14,153.17 197.2,256.3 258.01,423.79 345.16,715.4 30.93,103.47 31.63,226.56 60.68,339.07 8.01,30.15 6.56,7.67 13.21,47.12 60,-65 98.34,-293.65 107.36,-382.02 32.18,-315.02 -47.73,-705.07 -162.38,-999.75 -26.33,-67.66 -81.3,-192.83 -116.91,-255.58 -9.66,-17.01 -8.73,-20.22 -16.42,-36.65 -20.63,-44.08 -55.49,-95.15 -81.2,-138.9 -102.99,-175.32 -277.99,-389.78 -473.86,-486.48 -330.41,-163.11 -290.34,330.17 -311.1,537.98 -7.19,72.06 -19.49,128.49 -57.19,189.95 -62,101.09 -145.81,218.16 -167.23,369.68 -17.71,125.38 -1.5,249.33 45.64,340.8 8.17,15.87 11.53,19.59 18.13,35.8 6.6,16.24 7.13,19.14 19.7,35.02 62.95,79.52 56.33,95.18 163.64,187.55 23,19.8 41.93,38.62 66.55,56.55 26.11,19 51.64,33.53 78.28,50.72 252.29,162.83 560.8,325.05 826.29,488.88 -14.93,-35.31 -44.4,-69.43 -72.22,-100.08z"/>
   <path class="fil1" d="M602.18 3387.38c79.52,34.4 356.76,79 440.1,85.95 236.13,19.72 523.03,-23.63 724.02,-124.21 218.84,-109.51 398.62,-236.7 531.86,-451.02 -27.98,6.59 -24.04,9.38 -51.38,23.26l-332.07 136.09c-175.5,59.9 -391.23,107.21 -612.35,46.71 -263.5,-72.09 -124.34,-209.21 70.12,-268.05 185.24,-56.05 382.07,-51.67 580.16,-18.47l252.46 51.28c38.73,5.25 56.61,21.99 79.48,6.06 -28.78,-10.33 -108.89,-70.75 -137.18,-91.17 -43.42,-31.32 -99.98,-64.2 -148.55,-90.49 -257.9,-139.53 -699.34,-291.63 -992.56,-166.45l-63.04 31.12c-82.67,47.07 -144.47,124.49 -167.84,240.42 -12.57,62.32 -7.71,151.73 9.26,214.48 53.97,199.32 -524.42,255.38 -182.49,374.49z"/>
   <path class="fil0" d="M1674.83 3504.65c51.35,-4.14 154.25,-27.5 202.14,-43.53 98.41,-32.93 184.56,-63.62 278.02,-117.35 72.45,-41.65 140.26,-89.14 204.56,-140.84l115.57 -98.54c133.5,-130.84 242.62,-257.81 331.61,-422.74 28.69,-53.19 38.42,-59.18 60.61,-127.45 25.89,-79.63 -56.07,-150.27 -143.65,-142.93 -100.06,8.39 -110.72,79.27 -158,173.98 -20.27,40.62 -37.29,84.85 -54.64,119.17 -21.32,42.2 -39.62,81.03 -60.84,117.85 -40.49,70.26 -91.87,143.45 -141.62,201.78 -269.07,315.47 -924.87,503.98 -633.76,480.6z"/>
   <path class="fil0" d="M2787.85 1699.7c54.19,250.18 -15.49,480.56 -94.7,724.21 63.64,105.43 160.19,-518.85 161.96,-558.47 3.32,-74.01 5.71,-288.04 -82.95,-312.29 -49.96,-13.67 -207,65.93 15.69,146.55z"/>
   <path class="fil0" d="M2800.87 2455.63c18.66,9.78 6.62,7.15 25.29,16.93 41.55,-118.16 361.28,-409.93 510.31,-452.37 28.07,14.71 53.63,42.23 107.49,26.03 50.12,-15.08 60.68,-65.43 38.23,-93.47 -35.52,-44.39 -111.03,-32.34 -143.63,-2.79 -23.16,20.98 -7.97,16.32 -40.57,32.45l-90.28 49.32c-151.27,85.87 -358.11,285.33 -406.84,423.9z"/>
  </g>
 </g>
</svg>
