<?xml version="1.0" encoding="UTF-8"?>
<!DOCTYPE svg PUBLIC "-//W3C//DTD SVG 1.1//EN" "http://www.w3.org/Graphics/SVG/1.1/DTD/svg11.dtd">
<!-- Creator: CorelDRAW 2021 (64-Bit) -->
<svg xmlns="http://www.w3.org/2000/svg" xml:space="preserve" width="130mm" height="40mm" version="1.1" style="shape-rendering:geometricPrecision; text-rendering:geometricPrecision; image-rendering:optimizeQuality; fill-rule:evenodd; clip-rule:evenodd"
viewBox="0 0 13000 4000"
 xmlns:xlink="http://www.w3.org/1999/xlink"
 xmlns:xodm="http://www.corel.com/coreldraw/odm/2003">
 <defs>
  <style type="text/css">
   <![CDATA[
    .str0 {stroke:#999999;stroke-width:20;stroke-linecap:round;stroke-linejoin:round;stroke-miterlimit:22.9256}
    .fil1 {fill:none}
    .fil4 {fill:#16325B}
    .fil5 {fill:#4192D9}
    .fil3 {fill:#16325B;fill-rule:nonzero}
    .fil2 {fill:#4192D9;fill-rule:nonzero}
    .fil0 {fill:gray;fill-rule:nonzero}
   ]]>
  </style>
 </defs>
 <g id="Layer_x0020_1">
  <metadata id="CorelCorpID_0Corel-Layer"/>
  <g id="_1649574700304">
   <path class="fil0" d="M4811.86 3286.78l87.31 -220.84 33.87 0 87.31 220.84 -36.04 0 -20.93 -55.39 -101.02 0 -21.28 55.39 -29.22 0zm60.67 -80.79l80.73 0 -40.51 -105.48 -40.22 105.48z"/>
   <path id="_1" class="fil0" d="M5287.98 3065.94l33.87 0 0 134.11c0,23.41 3.7,40.4 11.11,50.86 7.41,10.53 19.4,15.76 35.92,15.76 17.47,0 30.05,-5.23 37.75,-15.76 7.7,-10.46 11.52,-27.75 11.52,-51.74l0 -133.23 29.64 0 0 128.24c0,27.63 -3.29,47.44 -9.82,59.5 -13.88,25.57 -36.81,38.39 -68.73,38.39 -27.64,0 -48.1,-7.58 -61.39,-22.69 -13.23,-15.17 -19.87,-38.46 -19.87,-69.91l0 -133.53z"/>
   <path id="_2" class="fil0" d="M5532.15 3286.78l0 -186.97 33.86 0 0 35.04c15.64,-26.17 36.93,-39.28 63.8,-39.28 35.57,0 53.33,21.05 53.33,63.21l0 128 -33.87 0 0 -118.77c0,-14.58 -2.29,-24.99 -6.82,-31.1 -4.53,-6.18 -12.17,-9.23 -22.87,-9.23 -17.05,0 -34.93,12.28 -53.57,36.8l0 122.3 -33.86 0z"/>
   <path id="_3" class="fil0" d="M5837.7 3286.78l0 -161.57 -68.09 0 0 -25.4 101.96 0 0 186.97 -33.87 0zm-4.59 -229.31l0 -42.68 42.69 0 0 42.68 -42.69 0z"/>
   <path id="_4" class="fil0" d="M6169.01 3286.54c-17,3 -33.4,4.47 -49.22,4.47 -27.63,0 -46.51,-4.94 -56.44,-14.87 -10,-9.94 -15,-28.75 -15,-56.45l0 -90.25 -46.56 0 0 -25.4 46.56 0 0 -40.22 33.87 0 0 40.22 82.91 0 0 25.4 -82.91 0 0 95.84c0,10.7 0.65,18.05 2,22.05 1.29,4.05 4.18,7.52 8.53,10.52 7.82,5.18 19.22,7.76 34.16,7.76 14.17,0 28.16,-1.58 42.1,-4.82l0 25.75z"/>
   <path id="_5" class="fil0" d="M6441.57 3176.07c0,-35.22 8.65,-63.39 25.99,-84.32 17.29,-20.99 40.57,-31.45 69.79,-31.45 29.23,0 52.51,10.46 69.79,31.45 17.35,20.93 25.99,49.1 25.99,84.32 0,35.39 -8.64,63.61 -25.99,84.55 -17.28,20.99 -40.56,31.45 -69.79,31.45 -29.22,0 -52.5,-10.46 -69.79,-31.45 -17.34,-20.94 -25.99,-49.16 -25.99,-84.55zm36.34 0c0,28.98 5.12,51.33 15.4,67.02 10.24,15.7 24.93,23.58 43.98,23.58 19,0 33.69,-7.88 44.04,-23.58 10.29,-15.69 15.47,-38.04 15.47,-67.02 0,-28.87 -5.18,-51.16 -15.47,-66.86 -10.35,-15.69 -25.04,-23.51 -44.04,-23.51 -19.05,0 -33.74,7.82 -43.98,23.51 -10.28,15.7 -15.4,37.99 -15.4,66.86z"/>
   <path id="_6" class="fil0" d="M6746.77 3286.78l0 -157.34 -51.15 0 0 -25.4 51.15 0 0 -19.81c0,-26.17 6.12,-44.98 18.29,-56.45 12.17,-11.46 32.16,-17.23 59.97,-17.23 18.4,0 35.81,2.47 52.27,7.41l0 26.75c-16.81,-5.82 -33.39,-8.76 -49.74,-8.76 -17.35,0 -29.52,3.3 -36.45,9.94 -7,6.59 -10.47,18.17 -10.47,34.69l0 23.46 89.61 0 0 25.4 -89.61 0 0 157.34 -33.87 0z"/>
   <path id="_7" class="fil0" d="M7295.92 3070.76l0 29.4c-24.87,-9.64 -46.98,-14.46 -66.32,-14.46 -30.58,0 -45.86,10.34 -45.86,31.1 0,8.41 2.88,15.17 8.58,20.28 5.7,5.12 16.35,10.35 31.75,15.76l21.7 7.59 20.58 7.05c31.92,11.23 47.92,30.34 47.92,57.21 0,20.46 -8.18,36.81 -24.52,49.04 -16.35,12.23 -38.28,18.34 -65.68,18.34 -19.05,0 -43.68,-4.06 -73.85,-12.17l0 -33.57c30.05,13.58 54.98,20.34 74.79,20.34 16.76,0 30.11,-3.29 40.1,-9.94 9.94,-6.64 14.94,-15.52 14.94,-26.69 0,-8.52 -2.94,-15.23 -8.88,-20.17 -5.88,-4.93 -18.11,-10.81 -36.57,-17.58l-22.7 -8.29c-22.64,-8.35 -38.34,-16.99 -47.1,-25.81 -8.76,-8.88 -13.17,-20.64 -13.17,-35.34 0,-19.87 6.77,-35.27 20.23,-46.21 13.52,-10.88 32.51,-16.34 57.03,-16.34 19.88,0 42.22,3.46 67.03,10.46z"/>
   <path id="_8" class="fil0" d="M7392.63 3286.78l0 -271.99 33.86 0 0 84.9 0 35.16c15.64,-26.17 36.93,-39.28 63.8,-39.28 35.57,0 53.33,21.05 53.33,63.21l0 128 -33.87 0 0 -118.77c0,-14.58 -2.29,-24.99 -6.82,-31.1 -4.53,-6.18 -12.17,-9.23 -22.87,-9.23 -17.05,0 -34.93,12.28 -53.57,36.8l0 122.3 -33.86 0z"/>
   <path id="_9" class="fil0" d="M7744.1 3264.08c-20.58,17.23 -41.04,25.88 -61.5,25.88 -17.05,0 -31.16,-4.89 -42.22,-14.65 -11.11,-9.7 -16.64,-22.04 -16.64,-36.92 0,-19.4 8.59,-34.98 25.82,-46.8 17.22,-11.82 39.98,-17.7 68.2,-17.7l20.99 0 0 -16.11c0,-13.23 -2.94,-22.7 -8.76,-28.34 -5.88,-5.64 -15.58,-8.47 -29.11,-8.47 -19.63,0 -39.92,5.53 -60.91,16.53l0 -29.05c24.05,-8.58 46.63,-12.88 67.68,-12.88 23.75,0 40.51,4.71 50.27,14.11 9.82,9.41 14.7,25.7 14.7,48.75l0 78.43c0,11.23 1.23,18.93 3.64,22.99 2.41,4.06 6.94,6.12 13.58,6.12 2.18,0 5.77,-0.59 10.71,-1.71l3.11 20.23c-11.35,3.64 -19.93,5.47 -25.75,5.47 -16.7,0 -27.99,-8.65 -33.81,-25.88zm-5.35 -21.93l0 -47.09 -10.11 0c-46.39,0 -69.62,12.52 -69.62,37.63 0,9.05 3,16.34 8.94,21.87 5.94,5.47 13.87,8.23 23.69,8.23 14.82,0 30.52,-6.88 47.1,-20.64z"/>
   <polygon id="_10" class="fil0" points="7941.64,3286.78 7941.64,3040.19 7869.32,3040.19 7869.32,3014.79 7975.51,3014.79 7975.51,3286.78 "/>
   <polygon id="_11" class="fil0" points="8180.87,3286.78 8180.87,3040.19 8108.55,3040.19 8108.55,3014.79 8214.74,3014.79 8214.74,3286.78 "/>
   <path id="_12" class="fil0" d="M8461.79 3264.08c-20.58,17.23 -41.04,25.88 -61.5,25.88 -17.05,0 -31.16,-4.89 -42.22,-14.65 -11.11,-9.7 -16.64,-22.04 -16.64,-36.92 0,-19.4 8.59,-34.98 25.82,-46.8 17.22,-11.82 39.98,-17.7 68.2,-17.7l20.99 0 0 -16.11c0,-13.23 -2.94,-22.7 -8.76,-28.34 -5.88,-5.64 -15.58,-8.47 -29.11,-8.47 -19.63,0 -39.92,5.53 -60.91,16.53l0 -29.05c24.05,-8.58 46.63,-12.88 67.68,-12.88 23.75,0 40.51,4.71 50.27,14.11 9.82,9.41 14.7,25.7 14.7,48.75l0 78.43c0,11.23 1.23,18.93 3.64,22.99 2.41,4.06 6.94,6.12 13.58,6.12 2.18,0 5.77,-0.59 10.71,-1.71l3.11 20.23c-11.35,3.64 -19.93,5.47 -25.75,5.47 -16.7,0 -27.99,-8.65 -33.81,-25.88zm-5.35 -21.93l0 -47.09 -10.11 0c-46.39,0 -69.62,12.52 -69.62,37.63 0,9.05 3,16.34 8.94,21.87 5.94,5.47 13.87,8.23 23.69,8.23 14.82,0 30.52,-6.88 47.1,-20.64z"/>
   <polygon id="_13" class="fil0" points="8645.58,3286.78 8567.96,3099.81 8602.65,3099.81 8665.1,3249.56 8729.18,3099.81 8759.52,3099.81 8679.79,3286.78 "/>
   <path id="_14" class="fil0" d="M8940.25 3264.08c-20.58,17.23 -41.04,25.88 -61.5,25.88 -17.05,0 -31.16,-4.89 -42.22,-14.65 -11.11,-9.7 -16.64,-22.04 -16.64,-36.92 0,-19.4 8.59,-34.98 25.82,-46.8 17.22,-11.82 39.98,-17.7 68.2,-17.7l20.99 0 0 -16.11c0,-13.23 -2.94,-22.7 -8.76,-28.34 -5.88,-5.64 -15.58,-8.47 -29.11,-8.47 -19.63,0 -39.92,5.53 -60.91,16.53l0 -29.05c24.05,-8.58 46.63,-12.88 67.68,-12.88 23.75,0 40.51,4.71 50.27,14.11 9.82,9.41 14.7,25.7 14.7,48.75l0 78.43c0,11.23 1.23,18.93 3.64,22.99 2.41,4.06 6.94,6.12 13.58,6.12 2.18,0 5.77,-0.59 10.71,-1.71l3.11 20.23c-11.35,3.64 -19.93,5.47 -25.75,5.47 -16.7,0 -27.99,-8.65 -33.81,-25.88zm-5.35 -21.93l0 -47.09 -10.11 0c-46.39,0 -69.62,12.52 -69.62,37.63 0,9.05 3,16.34 8.94,21.87 5.94,5.47 13.87,8.23 23.69,8.23 14.82,0 30.52,-6.88 47.1,-20.64z"/>
   <path id="_15" class="fil0" d="M9088.76 3286.78l0 -186.97 33.86 0 0 35.04c17.29,-26.17 40.46,-39.28 69.56,-39.28 10.23,0 21.87,1.41 34.87,4.3l0 53.21 -25.4 0 0 -26.17c-5.06,-1.12 -9.7,-1.7 -13.82,-1.7 -13.05,0 -24.46,3 -34.34,9.05 -9.88,6 -20.17,16.29 -30.87,30.75l0 121.77 -33.86 0z"/>
   <path id="_16" class="fil0" d="M9679.53 3070.23l0 31.16c-22.69,-10.46 -43.92,-15.69 -63.67,-15.69 -22.82,0 -41.63,8.4 -56.39,25.16 -14.76,16.76 -22.11,38.1 -22.11,64.09 0,26.05 8.35,47.45 24.99,64.2 16.64,16.7 37.92,25.05 63.74,25.05 5.88,0 13.34,-0.7 22.4,-2.06l0 -58.26 -41.63 0 0 -25.4 75.49 0 0 102.6c-23.1,7.35 -44.97,10.99 -65.67,10.99 -34.22,0 -62.09,-10.64 -83.49,-31.87 -21.46,-21.28 -32.16,-48.91 -32.16,-82.9 0,-34.81 10.7,-63.03 32.04,-84.61 21.34,-21.58 49.27,-32.39 83.73,-32.39 19.52,0 40.45,3.29 62.73,9.93z"/>
   <path id="_17" class="fil0" d="M9779.77 3286.78l0 -186.97 33.86 0 0 35.04c17.29,-26.17 40.46,-39.28 69.56,-39.28 10.23,0 21.87,1.41 34.87,4.3l0 53.21 -25.4 0 0 -26.17c-5.06,-1.12 -9.7,-1.7 -13.82,-1.7 -13.05,0 -24.46,3 -34.34,9.05 -9.88,6 -20.17,16.29 -30.87,30.75l0 121.77 -33.86 0z"/>
   <path id="_18" class="fil0" d="M10072.27 3291.01c-27.46,0 -49.04,-8.7 -64.68,-26.1 -15.7,-17.35 -23.52,-41.28 -23.52,-71.73 0,-30.28 7.88,-54.16 23.58,-71.5 15.76,-17.4 37.28,-26.11 64.62,-26.11 27.45,0 49.03,8.71 64.67,26.11 15.7,17.34 23.52,41.22 23.52,71.5 0,30.45 -7.82,54.38 -23.52,71.73 -15.64,17.4 -37.22,26.1 -64.67,26.1zm0 -25.4c16.28,0 28.98,-6.35 38.1,-19.11 9.17,-12.75 13.76,-30.51 13.76,-53.32 0,-22.64 -4.59,-40.34 -13.76,-53.1 -9.12,-12.76 -21.82,-19.11 -38.1,-19.11 -16.23,0 -28.99,6.35 -38.1,19.11 -9.18,12.76 -13.76,30.46 -13.76,53.1 0,22.81 4.58,40.57 13.76,53.32 9.11,12.76 21.87,19.11 38.1,19.11z"/>
   <path id="_19" class="fil0" d="M10386.64 3099.81l0 186.97 -33.87 0 0 -35.22c-15.64,26.28 -36.98,39.45 -63.97,39.45 -35.45,0 -53.15,-21.1 -53.15,-63.32l0 -127.88 33.87 0 0 118.65c0,14.7 2.23,25.1 6.76,31.22 4.47,6.17 12.11,9.23 22.93,9.23 17.05,0 34.92,-12.35 53.56,-36.98l0 -122.12 33.87 0z"/>
   <path id="_20" class="fil0" d="M10475.23 3354.87l0 -255.06 33.87 0 0 35.16c16.46,-26.29 36.86,-39.4 61.21,-39.4 21.28,0 38.04,8.18 50.27,24.52 12.23,16.41 18.34,38.69 18.34,66.91 0,30.99 -7.23,56.09 -21.69,75.26 -14.53,19.17 -33.46,28.75 -56.92,28.75 -20.11,0 -37.16,-8.52 -51.21,-25.51l0 89.37 -33.87 0zm33.87 -114.77c15.7,16.99 31.22,25.51 46.51,25.51 14.87,0 26.46,-6.58 34.69,-19.75 8.17,-13.11 12.29,-31.52 12.29,-55.21 0,-44.1 -13.18,-66.15 -39.46,-66.15 -19.16,0 -37.16,11.94 -54.03,35.87l0 79.73z"/>
   <line class="fil1 str0" x1="3922.52" y1="3140.1" x2="4522.52" y2= "3140.1" />
   <path class="fil2" d="M3782.87 2408.13c0,36.55 -8.81,69.43 -26.42,98.64 -17.48,29.21 -43.25,52.07 -77.16,68.58 -33.91,16.51 -74.13,24.69 -120.54,24.69 -55.74,0 -101.75,-11.29 -137.89,-33.73 -25.63,-16.22 -46.41,-37.95 -62.44,-65.05 -16.04,-27.09 -24.05,-53.48 -24.05,-79.16 0,-14.82 4.86,-27.52 14.46,-38.24 9.59,-10.59 21.81,-15.81 36.67,-15.81 12.09,0 22.22,4.09 30.5,12.42 8.41,8.18 15.51,20.46 21.42,36.83 7.1,19.19 14.98,35.42 23.26,48.26 8.42,12.98 20.12,23.71 35.23,32.17 15.25,8.33 35.1,12.56 59.82,12.56 33.78,0 61.39,-8.46 82.55,-25.4 21.16,-16.93 31.8,-38.1 31.8,-63.5 0,-20.18 -5.64,-36.55 -17.08,-48.96 -11.44,-12.56 -26.29,-22.16 -44.44,-28.79 -18,-6.63 -42.31,-13.69 -72.55,-21.17 -40.49,-10.16 -74.53,-22.15 -101.74,-35.7 -27.34,-13.69 -49.03,-32.31 -65.07,-55.88 -16.04,-23.56 -24.05,-52.77 -24.05,-87.91 0,-33.3 8.41,-62.94 25.36,-88.9 16.96,-25.82 41.54,-45.72 73.61,-59.69 32.08,-13.97 69.8,-20.89 113.18,-20.89 34.57,0 64.55,4.66 89.91,13.83 25.24,9.32 46.27,21.59 62.97,36.83 16.56,15.24 28.79,31.33 36.54,48.12 7.63,16.79 11.57,33.3 11.57,49.25 0,14.53 -4.86,27.8 -14.46,39.51 -9.59,11.71 -21.68,17.5 -36.02,17.5 -13.14,0 -23,-3.53 -29.84,-10.44 -6.83,-7.06 -14.19,-18.63 -22.08,-34.58 -10.38,-22.86 -22.61,-40.78 -37.07,-53.62 -14.33,-12.84 -37.47,-19.19 -69.41,-19.19 -29.43,0 -53.37,6.92 -71.37,20.89 -18.14,13.97 -27.21,30.62 -27.21,50.23 0,12.14 3.03,22.58 9.2,31.47 6.18,8.75 14.72,16.37 25.5,22.72 10.78,6.35 21.69,11.29 32.73,14.96 11.04,3.52 29.32,8.75 54.68,15.66 31.81,8.04 60.74,16.79 86.5,26.53 25.76,9.59 47.72,21.31 65.85,35.14 18.15,13.68 32.21,31.18 42.33,52.21 10.13,21.16 15.25,46.99 15.25,77.61z"/>
   <path id="_1_0" class="fil2" d="M3975.32 2042.08l0 167.22c13.4,-16.51 26.42,-29.63 39.17,-39.23 12.62,-9.59 26.68,-16.93 42.06,-21.73 15.52,-4.8 32.08,-7.2 49.83,-7.2 26.67,0 50.34,6.07 71.11,18.21 20.63,12.13 36.8,29.77 48.63,52.92 7.49,13.4 12.49,28.5 15.12,45.29 2.5,16.65 3.81,35.84 3.81,57.58l0 216.32c0,22.58 -4.86,39.65 -14.45,51.22 -9.6,11.57 -22.48,17.36 -38.39,17.36 -34.7,0 -52.06,-22.86 -52.06,-68.58l0 -190.64c0,-36.13 -4.99,-63.93 -14.99,-83.26 -9.98,-19.47 -29.04,-29.21 -57.04,-29.21 -18.67,0 -35.62,5.79 -50.61,17.22 -14.98,11.43 -26.29,26.95 -33.65,46.85 -5.65,16.79 -8.54,46.7 -8.54,89.74l0 149.3c0,22.3 -4.73,39.23 -14.07,50.94 -9.33,11.71 -22.35,17.64 -38.91,17.64 -34.57,0 -51.92,-22.86 -51.92,-68.58l0 -489.38c0,-22.86 4.6,-39.93 13.67,-51.36 9.07,-11.43 21.82,-17.22 38.25,-17.22 16.56,0 29.58,5.79 38.91,17.36 9.34,11.57 14.07,28.65 14.07,51.22z"/>
   <path id="_2_1" class="fil2" d="M4614.82 2536.68c-25.5,21.17 -50.08,36.97 -73.75,47.56 -23.79,10.58 -50.47,15.8 -79.91,15.8 -26.95,0 -50.74,-5.79 -71.11,-17.22 -20.39,-11.43 -36.16,-26.81 -47.2,-46.42 -11.04,-19.62 -16.56,-40.78 -16.56,-63.64 0,-30.91 9.07,-57.15 27.34,-78.88 18.27,-21.88 43.37,-36.41 75.33,-43.89 6.56,-1.69 23.13,-5.36 49.54,-11.15 26.43,-5.78 49.17,-11 67.97,-15.94 18.8,-4.8 39.3,-10.59 61.39,-17.5 -1.32,-29.78 -6.84,-51.65 -16.7,-65.48 -9.99,-13.97 -30.36,-20.88 -61.51,-20.88 -26.69,0 -46.81,3.95 -60.21,11.99 -13.54,7.91 -25.1,19.9 -34.71,35.99 -9.59,15.94 -16.43,26.38 -20.37,31.61 -4.07,5.08 -12.62,7.62 -25.64,7.62 -11.83,0 -22.07,-4.1 -30.62,-12.28 -8.55,-8.04 -12.88,-18.49 -12.88,-31.19 0,-19.89 6.57,-39.23 19.58,-57.99 13.15,-18.77 33.53,-34.15 61.26,-46.29 27.74,-12.13 62.31,-18.2 103.72,-18.2 46.13,0 82.55,5.92 108.97,17.64 26.41,11.71 45.08,30.2 55.99,55.6 10.92,25.4 16.43,58.98 16.43,100.89 0,26.53 -0.13,48.97 -0.26,67.45 -0.13,18.49 -0.26,39.09 -0.52,61.67 0,21.16 3.28,43.32 9.86,66.32 6.56,22.86 9.72,37.68 9.72,44.31 0,11.57 -4.99,22.15 -15.12,31.61 -10.24,9.45 -21.68,14.25 -34.57,14.25 -10.77,0 -21.42,-5.36 -31.94,-16.23 -10.52,-10.86 -21.69,-26.53 -33.52,-47.13zm-6.96 -163.55c-15.38,6.07 -37.73,12.56 -67.18,19.19 -29.31,6.78 -49.68,11.86 -60.99,14.96 -11.3,3.25 -22.08,9.46 -32.34,18.63 -10.25,9.31 -15.38,22.15 -15.38,38.8 0,17.08 6.05,31.61 18.14,43.61 11.97,11.99 27.74,18.06 47.32,18.06 20.78,0 39.97,-4.94 57.45,-14.68 17.62,-9.87 30.5,-22.43 38.78,-37.95 9.46,-17.08 14.2,-45.3 14.2,-84.53l0 -16.09z"/>
   <path id="_3_2" class="fil2" d="M4817.78 2531.46l0 -489.38c0,-22.57 4.73,-39.65 14.06,-51.22 9.34,-11.57 21.95,-17.36 37.86,-17.36 15.77,0 28.65,5.79 38.38,17.22 9.73,11.43 14.6,28.5 14.6,51.36l0 489.38c0,22.86 -5,39.93 -14.86,51.36 -9.86,11.43 -22.61,17.22 -38.12,17.22 -15.38,0 -27.87,-5.93 -37.47,-17.78 -9.59,-11.85 -14.45,-28.79 -14.45,-50.8z"/>
   <path id="_4_3" class="fil2" d="M5031.52 2531.46l0 -489.38c0,-22.57 4.73,-39.65 14.06,-51.22 9.34,-11.57 21.95,-17.36 37.86,-17.36 15.77,0 28.65,5.79 38.38,17.22 9.73,11.43 14.6,28.5 14.6,51.36l0 489.38c0,22.86 -5,39.93 -14.86,51.36 -9.86,11.43 -22.61,17.22 -38.12,17.22 -15.38,0 -27.87,-5.93 -37.47,-17.78 -9.59,-11.85 -14.45,-28.79 -14.45,-50.8z"/>
   <path id="_5_4" class="fil2" d="M5510.92 2536.68c-25.5,21.17 -50.09,36.97 -73.75,47.56 -23.79,10.58 -50.47,15.8 -79.91,15.8 -26.95,0 -50.74,-5.79 -71.12,-17.22 -20.38,-11.43 -36.15,-26.81 -47.19,-46.42 -11.05,-19.62 -16.56,-40.78 -16.56,-63.64 0,-30.91 9.06,-57.15 27.34,-78.88 18.27,-21.88 43.37,-36.41 75.32,-43.89 6.57,-1.69 23.13,-5.36 49.55,-11.15 26.43,-5.78 49.17,-11 67.97,-15.94 18.79,-4.8 39.3,-10.59 61.38,-17.5 -1.31,-29.78 -6.83,-51.65 -16.69,-65.48 -10,-13.97 -30.37,-20.88 -61.52,-20.88 -26.69,0 -46.8,3.95 -60.2,11.99 -13.55,7.91 -25.11,19.9 -34.71,35.99 -9.6,15.94 -16.43,26.38 -20.37,31.61 -4.08,5.08 -12.63,7.62 -25.64,7.62 -11.83,0 -22.08,-4.1 -30.62,-12.28 -8.55,-8.04 -12.88,-18.49 -12.88,-31.19 0,-19.89 6.56,-39.23 19.58,-57.99 13.14,-18.77 33.52,-34.15 61.26,-46.29 27.74,-12.13 62.31,-18.2 103.71,-18.2 46.14,0 82.55,5.92 108.97,17.64 26.42,11.71 45.09,30.2 56,55.6 10.91,25.4 16.43,58.98 16.43,100.89 0,26.53 -0.13,48.97 -0.26,67.45 -0.13,18.49 -0.26,39.09 -0.52,61.67 0,21.16 3.28,43.32 9.85,66.32 6.57,22.86 9.73,37.68 9.73,44.31 0,11.57 -5,22.15 -15.12,31.61 -10.25,9.45 -21.69,14.25 -34.57,14.25 -10.78,0 -21.43,-5.36 -31.94,-16.23 -10.52,-10.86 -21.69,-26.53 -33.52,-47.13zm-6.97 -163.55c-15.38,6.07 -37.72,12.56 -67.17,19.19 -29.31,6.78 -49.69,11.86 -61,14.96 -11.3,3.25 -22.07,9.46 -32.33,18.63 -10.26,9.31 -15.38,22.15 -15.38,38.8 0,17.08 6.05,31.61 18.14,43.61 11.97,11.99 27.74,18.06 47.32,18.06 20.77,0 39.96,-4.94 57.45,-14.68 17.61,-9.87 30.5,-22.43 38.78,-37.95 9.46,-17.08 14.19,-45.3 14.19,-84.53l0 -16.09z"/>
   <path id="_6_5" class="fil2" d="M5768.56 2211.42l85.04 256.54 91.62 -267.69c7.23,-21.45 14.2,-36.69 21.16,-45.72 6.97,-8.89 17.49,-13.41 31.56,-13.41 13.4,0 24.71,4.8 34.04,14.54 9.34,9.59 14.07,20.74 14.07,33.44 0,4.94 -0.79,10.73 -2.51,17.36 -1.7,6.63 -3.55,12.84 -5.77,18.63 -2.24,5.78 -4.74,12.41 -7.5,19.75l-100.82 268.82c-2.9,7.62 -6.45,17.5 -11.04,29.35 -4.47,11.85 -9.46,21.87 -14.99,30.34 -5.52,8.47 -12.36,14.96 -20.37,19.61 -8.15,4.66 -17.88,7.06 -29.45,7.06 -14.85,0 -26.68,-3.67 -35.62,-11.01 -8.81,-7.19 -15.38,-15.24 -19.59,-23.99 -4.2,-8.6 -11.44,-25.82 -21.42,-51.36l-100.04 -265.85c-2.37,-6.64 -4.73,-13.27 -7.1,-19.9 -2.5,-6.63 -4.46,-13.27 -6.17,-20.18 -1.71,-6.91 -2.5,-12.84 -2.5,-17.78 0,-7.76 2.23,-15.38 6.58,-23 4.33,-7.62 10.37,-13.83 18,-18.63 7.75,-4.8 16.03,-7.2 25.11,-7.2 17.35,0 29.44,5.37 36.01,16.09 6.45,10.87 13.67,28.93 21.7,54.19z"/>
   <path id="_7_6" class="fil2" d="M6377.04 2536.68c-25.5,21.17 -50.09,36.97 -73.75,47.56 -23.79,10.58 -50.47,15.8 -79.91,15.8 -26.95,0 -50.74,-5.79 -71.12,-17.22 -20.38,-11.43 -36.15,-26.81 -47.19,-46.42 -11.05,-19.62 -16.56,-40.78 -16.56,-63.64 0,-30.91 9.06,-57.15 27.34,-78.88 18.27,-21.88 43.37,-36.41 75.32,-43.89 6.57,-1.69 23.13,-5.36 49.55,-11.15 26.43,-5.78 49.17,-11 67.97,-15.94 18.79,-4.8 39.3,-10.59 61.38,-17.5 -1.31,-29.78 -6.83,-51.65 -16.69,-65.48 -9.99,-13.97 -30.37,-20.88 -61.52,-20.88 -26.69,0 -46.8,3.95 -60.2,11.99 -13.55,7.91 -25.11,19.9 -34.71,35.99 -9.6,15.94 -16.43,26.38 -20.37,31.61 -4.08,5.08 -12.63,7.62 -25.64,7.62 -11.83,0 -22.08,-4.1 -30.62,-12.28 -8.55,-8.04 -12.88,-18.49 -12.88,-31.19 0,-19.89 6.56,-39.23 19.58,-57.99 13.14,-18.77 33.52,-34.15 61.26,-46.29 27.74,-12.13 62.31,-18.2 103.71,-18.2 46.14,0 82.55,5.92 108.97,17.64 26.42,11.71 45.09,30.2 56,55.6 10.92,25.4 16.43,58.98 16.43,100.89 0,26.53 -0.13,48.97 -0.26,67.45 -0.13,18.49 -0.26,39.09 -0.52,61.67 0,21.16 3.28,43.32 9.85,66.32 6.57,22.86 9.73,37.68 9.73,44.31 0,11.57 -4.99,22.15 -15.12,31.61 -10.25,9.45 -21.69,14.25 -34.57,14.25 -10.78,0 -21.43,-5.36 -31.94,-16.23 -10.52,-10.86 -21.69,-26.53 -33.52,-47.13zm-6.97 -163.55c-15.38,6.07 -37.72,12.56 -67.17,19.19 -29.31,6.78 -49.69,11.86 -61,14.96 -11.3,3.25 -22.07,9.46 -32.33,18.63 -10.26,9.31 -15.38,22.15 -15.38,38.8 0,17.08 6.05,31.61 18.14,43.61 11.97,11.99 27.74,18.06 47.32,18.06 20.77,0 39.96,-4.94 57.45,-14.68 17.61,-9.87 30.5,-22.43 38.78,-37.95 9.46,-17.08 14.19,-45.3 14.19,-84.53l0 -16.09z"/>
   <path id="_8_7" class="fil2" d="M6684.1 2437.2l0 94.26c0,22.86 -4.99,39.93 -14.99,51.36 -9.98,11.43 -22.6,17.22 -37.98,17.22 -15.12,0 -27.61,-5.79 -37.33,-17.36 -9.73,-11.57 -14.6,-28.64 -14.6,-51.22l0 -314.26c0,-50.66 17.1,-76.06 51.14,-76.06 17.35,0 29.97,5.93 37.59,17.78 7.76,11.86 11.97,29.5 12.75,52.64 12.5,-23.14 25.38,-40.78 38.65,-52.64 13.28,-11.85 30.89,-17.78 52.98,-17.78 22.08,0 43.5,5.93 64.27,17.78 20.78,11.86 31.16,27.66 31.16,47.28 0,13.83 -4.34,25.12 -13.28,34.15 -8.8,9.03 -18.4,13.4 -28.65,13.4 -3.81,0 -13.15,-2.54 -27.87,-7.62 -14.85,-5.08 -27.87,-7.62 -39.18,-7.62 -15.37,0 -27.86,4.38 -37.72,12.98 -9.73,8.75 -17.35,21.59 -22.74,38.67 -5.39,17.07 -9.07,37.39 -11.17,60.96 -1.98,23.56 -3.03,52.21 -3.03,86.08z"/>
   <path id="_9_8" class="fil3" d="M7496.59 2085.26l-124.74 0 0 439.99c0,25.4 -5.26,44.17 -15.91,56.45 -10.51,12.27 -24.18,18.34 -40.87,18.34 -16.97,0 -30.89,-6.21 -41.54,-18.63 -10.65,-12.41 -16.04,-31.04 -16.04,-56.16l0 -439.99 -124.74 0c-19.59,0 -34.05,-4.65 -43.51,-13.82 -9.47,-9.32 -14.33,-21.59 -14.33,-36.83 0,-15.67 4.99,-28.09 14.85,-37.26 9.86,-9.17 24.19,-13.69 42.99,-13.69l363.84 0c19.86,0 34.44,4.66 44.18,14.12 9.59,9.45 14.45,21.73 14.45,36.83 0,15.24 -4.99,27.51 -14.72,36.83 -9.73,9.17 -24.32,13.82 -43.91,13.82z"/>
   <path id="_10_9" class="fil3" d="M7859.14 2398.53l-205.72 0c0.26,25.68 5.12,48.26 14.45,67.88 9.34,19.61 21.83,34.29 37.34,44.17 15.51,10.01 32.73,14.95 51.39,14.95 12.63,0 24.06,-1.55 34.44,-4.79 10.52,-3.11 20.51,-8.05 30.24,-14.82 9.86,-6.77 18.8,-13.97 26.95,-21.73 8.28,-7.76 18.93,-18.21 32.07,-31.47 5.39,-4.94 13.02,-7.48 23,-7.48 10.79,0 19.59,3.25 26.3,9.6 6.57,6.21 9.98,15.24 9.98,26.81 0,10.16 -3.81,22.01 -11.16,35.7 -7.5,13.55 -18.67,26.67 -33.79,39.09 -14.99,12.56 -33.79,23 -56.53,31.18 -22.74,8.33 -48.89,12.42 -78.34,12.42 -67.56,0 -120.02,-20.74 -157.47,-62.09 -37.47,-41.34 -56.14,-97.37 -56.14,-168.2 0,-33.31 4.6,-64.35 13.81,-92.86 9.2,-28.5 22.74,-52.91 40.35,-73.37 17.75,-20.32 39.57,-35.99 65.47,-46.85 25.89,-10.87 54.68,-16.37 86.22,-16.37 41.15,0 76.38,9.31 105.69,27.94 29.45,18.63 51.4,42.61 66.12,72.25 14.59,29.49 21.95,59.55 21.95,90.17 0,28.36 -7.62,46.85 -22.74,55.31 -15.12,8.33 -36.41,12.56 -63.88,12.56zm-205.72 -64.34l190.6 0c-2.5,-38.53 -12.22,-67.31 -29.05,-86.51 -16.83,-19.05 -38.91,-28.64 -66.38,-28.64 -26.29,0 -47.72,9.74 -64.54,29.07 -16.83,19.47 -27.08,48.12 -30.63,86.08z"/>
   <path id="_11_10" class="fil3" d="M8411.62 2460.48c0,13.97 -3.94,29.07 -11.83,45.02 -7.76,15.94 -19.72,31.18 -35.75,45.57 -16.04,14.4 -36.29,26.11 -60.74,34.86 -24.31,8.89 -51.78,13.26 -82.41,13.26 -64.94,0 -115.68,-20.32 -152.09,-60.96 -36.55,-40.64 -54.81,-95.11 -54.81,-163.55 0,-46.28 8.41,-87.2 25.1,-122.76 16.69,-35.56 40.88,-63.08 72.43,-82.41 31.68,-19.48 69.41,-29.21 113.31,-29.21 27.21,0 52.18,4.23 74.92,12.84 22.61,8.61 41.94,19.61 57.71,33.16 15.77,13.55 27.87,27.94 36.15,43.18 8.41,15.38 12.62,29.63 12.62,42.9 0,13.55 -4.74,24.98 -14.06,34.43 -9.47,9.31 -20.77,13.97 -34.18,13.97 -8.68,0 -15.91,-2.4 -21.69,-7.2 -5.79,-4.79 -12.23,-12.56 -19.45,-23.28 -12.89,-20.88 -26.29,-36.69 -40.23,-47.13 -14.06,-10.44 -31.81,-15.66 -53.37,-15.66 -31.02,0 -56.13,12.98 -75.06,39.08 -19.06,25.97 -28.52,61.53 -28.52,106.68 0,21.17 2.49,40.64 7.36,58.42 4.86,17.78 11.83,33.02 21.16,45.44 9.21,12.56 20.37,22.02 33.53,28.51 13.01,6.49 27.47,9.73 43.11,9.73 21.03,0 39.04,-5.22 54.03,-15.66 15.11,-10.44 28.39,-26.53 39.95,-47.98 6.32,-12.7 13.28,-22.58 20.77,-29.63 7.36,-7.2 16.57,-10.87 27.34,-10.87 12.89,0 23.54,5.36 31.95,15.81 8.41,10.44 12.75,21.59 12.75,33.44z"/>
   <path id="_12_11" class="fil3" d="M8586.05 2042.08l0 167.22c13.4,-16.51 26.42,-29.63 39.17,-39.23 12.62,-9.59 26.68,-16.93 42.06,-21.73 15.52,-4.8 32.08,-7.2 49.83,-7.2 26.68,0 50.34,6.07 71.11,18.21 20.63,12.13 36.8,29.77 48.63,52.92 7.49,13.4 12.49,28.5 15.12,45.29 2.5,16.65 3.81,35.84 3.81,57.58l0 216.32c0,22.58 -4.86,39.65 -14.45,51.22 -9.6,11.57 -22.48,17.36 -38.39,17.36 -34.7,0 -52.06,-22.86 -52.06,-68.58l0 -190.64c0,-36.13 -4.99,-63.93 -14.98,-83.26 -9.99,-19.47 -29.05,-29.21 -57.05,-29.21 -18.67,0 -35.62,5.79 -50.61,17.22 -14.98,11.43 -26.29,26.95 -33.65,46.85 -5.65,16.79 -8.54,46.7 -8.54,89.74l0 149.3c0,22.3 -4.73,39.23 -14.07,50.94 -9.33,11.71 -22.34,17.64 -38.91,17.64 -34.57,0 -51.92,-22.86 -51.92,-68.58l0 -489.38c0,-22.86 4.6,-39.93 13.67,-51.36 9.07,-11.43 21.82,-17.22 38.25,-17.22 16.57,0 29.58,5.79 38.91,17.36 9.34,11.57 14.07,28.65 14.07,51.22z"/>
   <path id="_13_12" class="fil3" d="M9055.07 2203.52l0 13.68c18.52,-26.24 38.77,-45.43 60.72,-57.71 21.95,-12.28 47.19,-18.35 75.72,-18.35 27.73,0 52.44,6.5 74.4,19.48 21.82,12.84 38.12,31.18 48.9,54.89 6.96,13.83 11.43,28.65 13.54,44.73 1.97,15.95 3.02,36.27 3.02,61.1l0 210.12c0,22.58 -4.86,39.65 -14.46,51.22 -9.59,11.57 -22.22,17.36 -37.6,17.36 -15.64,0 -28.39,-5.93 -38.24,-17.78 -9.73,-11.85 -14.6,-28.79 -14.6,-50.8l0 -188.24c0,-37.12 -4.86,-65.62 -14.46,-85.38 -9.59,-19.61 -28.78,-29.49 -57.57,-29.49 -18.67,0 -35.76,5.93 -51.27,17.92 -15.38,12 -26.68,28.51 -33.78,49.53 -5.13,16.8 -7.76,48.12 -7.76,94.27l0 141.39c0,22.86 -4.99,39.93 -14.84,51.36 -9.87,11.43 -22.62,17.22 -38.13,17.22 -15.12,0 -27.6,-5.93 -37.33,-17.78 -9.73,-11.85 -14.6,-28.79 -14.6,-50.8l0 -326.25c0,-21.45 4.34,-37.54 13.02,-48.12 8.81,-10.58 20.64,-15.95 35.76,-15.95 9.19,0 17.6,2.4 24.97,7.06 7.49,4.66 13.41,11.71 17.88,21.03 4.47,9.31 6.71,20.88 6.71,34.29z"/>
   <path id="_14_13" class="fil3" d="M9829.83 2370.73c0,33.73 -4.86,64.63 -14.59,93 -9.86,28.36 -23.93,52.77 -42.46,73.09 -18.4,20.46 -40.62,35.99 -66.25,46.85 -25.63,10.87 -54.56,16.37 -86.63,16.37 -31.94,0 -60.6,-5.5 -85.96,-16.51 -25.38,-11.01 -47.46,-26.81 -66.12,-47.41 -18.54,-20.46 -32.74,-44.74 -42.33,-72.68 -9.59,-28.08 -14.46,-58.98 -14.46,-92.85 0,-34.15 4.87,-65.47 14.59,-93.84 9.86,-28.36 23.79,-52.63 42.07,-72.81 18.27,-20.04 40.35,-35.56 66.25,-46.43 25.9,-10.86 54.55,-16.37 85.96,-16.37 31.81,0 60.74,5.51 86.63,16.51 25.89,11.01 48.11,26.82 66.65,47.28 18.53,20.32 32.6,44.59 42.19,72.81 9.6,28.08 14.46,59.13 14.46,92.99zm-105.69 0c0,-46 -9.46,-81.7 -28.25,-107.38 -18.93,-25.54 -44.18,-38.38 -75.99,-38.38 -20.63,0 -38.64,5.64 -54.29,17.07 -15.64,11.43 -27.73,28.36 -36.14,50.66 -8.54,22.29 -12.75,48.4 -12.75,78.03 0,29.5 4.21,55.32 12.49,77.33 8.41,22.02 20.24,38.95 35.75,50.66 15.51,11.71 33.92,17.5 54.94,17.5 31.81,0 57.06,-12.84 75.99,-38.66 18.79,-25.69 28.25,-61.39 28.25,-106.83z"/>
   <path id="_15_14" class="fil3" d="M9912.64 2531.46l0 -489.38c0,-22.57 4.74,-39.65 14.07,-51.22 9.33,-11.57 21.95,-17.36 37.86,-17.36 15.77,0 28.65,5.79 38.38,17.22 9.73,11.43 14.59,28.5 14.59,51.36l0 489.38c0,22.86 -4.99,39.93 -14.85,51.36 -9.86,11.43 -22.61,17.22 -38.12,17.22 -15.38,0 -27.87,-5.93 -37.47,-17.78 -9.59,-11.85 -14.46,-28.79 -14.46,-50.8z"/>
   <path id="_16_15" class="fil3" d="M10519.95 2370.73c0,33.73 -4.87,64.63 -14.59,93 -9.87,28.36 -23.93,52.77 -42.46,73.09 -18.41,20.46 -40.62,35.99 -66.25,46.85 -25.64,10.87 -54.56,16.37 -86.63,16.37 -31.94,0 -60.6,-5.5 -85.96,-16.51 -25.38,-11.01 -47.47,-26.81 -66.12,-47.41 -18.54,-20.46 -32.74,-44.74 -42.33,-72.68 -9.6,-28.08 -14.46,-58.98 -14.46,-92.85 0,-34.15 4.86,-65.47 14.59,-93.84 9.85,-28.36 23.79,-52.63 42.07,-72.81 18.26,-20.04 40.35,-35.56 66.25,-46.43 25.89,-10.86 54.55,-16.37 85.96,-16.37 31.81,0 60.73,5.51 86.63,16.51 25.89,11.01 48.1,26.82 66.64,47.28 18.54,20.32 32.61,44.59 42.2,72.81 9.59,28.08 14.46,59.13 14.46,92.99zm-105.69 0c0,-46 -9.47,-81.7 -28.26,-107.38 -18.93,-25.54 -44.17,-38.38 -75.98,-38.38 -20.64,0 -38.64,5.64 -54.29,17.07 -15.64,11.43 -27.73,28.36 -36.15,50.66 -8.54,22.29 -12.75,48.4 -12.75,78.03 0,29.5 4.21,55.32 12.49,77.33 8.42,22.02 20.25,38.95 35.76,50.66 15.51,11.71 33.91,17.5 54.94,17.5 31.81,0 57.05,-12.84 75.98,-38.66 18.79,-25.69 28.26,-61.39 28.26,-106.83z"/>
   <path id="_17_16" class="fil3" d="M10989.23 2224.12l0 327.8c0,37.54 -3.68,69.71 -11.18,96.66 -7.49,27.1 -19.32,49.39 -35.76,67.03 -16.43,17.64 -37.98,30.76 -64.53,39.23 -26.56,8.61 -59.68,12.84 -99.12,12.84 -36.28,0 -68.61,-5.5 -97.14,-16.37 -28.39,-10.86 -50.35,-24.98 -65.86,-42.19 -15.38,-17.22 -23.01,-34.86 -23.01,-53.06 0,-13.83 4.35,-24.98 13.02,-33.72 8.81,-8.61 19.33,-12.99 31.68,-12.99 15.38,0 28.92,7.2 40.48,21.88 5.66,7.33 11.57,14.81 17.49,22.43 6.04,7.48 12.75,13.97 19.98,19.33 7.36,5.37 16.17,9.46 26.43,12 10.24,2.68 22.08,3.95 35.35,3.95 27.21,0 48.24,-4.09 63.23,-12.14 15.12,-8.18 25.64,-19.47 31.55,-34.14 6.05,-14.54 9.6,-30.2 10.65,-46.85 1.04,-16.65 1.84,-43.32 2.23,-80.3 -16.17,24.28 -34.83,42.76 -56,55.32 -21.16,12.7 -46.4,19.05 -75.58,19.05 -35.23,0 -65.99,-9.6 -92.28,-28.93 -26.29,-19.33 -46.53,-46.28 -60.6,-81.14 -14.06,-34.71 -21.16,-74.79 -21.16,-120.22 0,-34.01 4.34,-64.63 12.88,-91.87 8.68,-27.23 20.91,-50.37 36.81,-69 15.9,-18.77 34.18,-32.88 55.08,-42.48 20.76,-9.45 43.64,-14.25 68.49,-14.25 29.7,0 55.6,6.21 77.42,18.49 21.81,12.27 42.06,31.61 60.72,57.85l0 -15.38c0,-19.61 4.6,-34.85 13.55,-45.58 8.93,-10.86 20.5,-16.23 34.7,-16.23 20.24,0 33.78,7.2 40.48,21.45 6.71,14.26 10,34.72 10,61.53zm-304.45 143.09c0,45.72 9.34,80.29 27.87,103.71 18.67,23.43 42.59,35.14 72.17,35.14 17.35,0 33.92,-5.08 49.43,-15.1 15.51,-10.02 28.13,-25.26 37.85,-45.44 9.73,-20.32 14.59,-44.87 14.59,-73.8 0,-46 -9.46,-81.84 -28.26,-107.53 -18.8,-25.54 -43.64,-38.38 -74.4,-38.38 -29.97,0 -54.02,12.28 -72.17,36.83 -18,24.56 -27.08,59.41 -27.08,104.57z"/>
   <path id="_18_17" class="fil3" d="M11200.6 2205.21l0 326.25c0,22.58 -4.99,39.65 -14.99,51.22 -9.98,11.57 -22.61,17.36 -37.99,17.36 -15.38,0 -27.87,-5.93 -37.46,-17.78 -9.6,-11.85 -14.46,-28.79 -14.46,-50.8l0 -322.86c0,-22.44 4.86,-39.23 14.46,-50.52 9.59,-11.29 22.08,-16.94 37.46,-16.94 15.38,0 28.01,5.65 37.99,16.94 10,11.29 14.99,27.09 14.99,47.13zm-51.92 -116.56c-14.6,0 -27.08,-4.8 -37.47,-14.39 -10.39,-9.6 -15.51,-23.29 -15.51,-40.92 0,-15.81 5.25,-28.93 15.9,-39.23 10.65,-10.3 23.01,-15.53 37.08,-15.53 13.66,0 25.63,4.66 36.14,13.97 10.52,9.46 15.78,23.01 15.78,40.79 0,17.35 -5.13,30.9 -15.38,40.64 -10.26,9.73 -22.35,14.67 -36.54,14.67z"/>
   <path id="_19_18" class="fil3" d="M11602.7 2398.53l-205.71 0c0.26,25.68 5.12,48.26 14.45,67.88 9.34,19.61 21.83,34.29 37.34,44.17 15.51,10.01 32.73,14.95 51.39,14.95 12.62,0 24.06,-1.55 34.44,-4.79 10.52,-3.11 20.51,-8.05 30.24,-14.82 9.85,-6.77 18.8,-13.97 26.95,-21.73 8.28,-7.76 18.93,-18.21 32.07,-31.47 5.38,-4.94 13.01,-7.48 23,-7.48 10.79,0 19.59,3.25 26.3,9.6 6.56,6.21 9.98,15.24 9.98,26.81 0,10.16 -3.81,22.01 -11.17,35.7 -7.5,13.55 -18.67,26.67 -33.78,39.09 -14.99,12.56 -33.79,23 -56.53,31.18 -22.74,8.33 -48.9,12.42 -78.34,12.42 -67.57,0 -120.02,-20.74 -157.48,-62.09 -37.46,-41.34 -56.13,-97.37 -56.13,-168.2 0,-33.31 4.6,-64.35 13.8,-92.86 9.21,-28.5 22.74,-52.91 40.36,-73.37 17.74,-20.32 39.57,-35.99 65.47,-46.85 25.88,-10.87 54.68,-16.37 86.22,-16.37 41.15,0 76.38,9.31 105.69,27.94 29.45,18.63 51.39,42.61 66.12,72.25 14.59,29.49 21.95,59.55 21.95,90.17 0,28.36 -7.62,46.85 -22.74,55.31 -15.12,8.33 -36.41,12.56 -63.89,12.56zm-205.71 -64.34l190.6 0c-2.5,-38.53 -12.23,-67.31 -29.05,-86.51 -16.83,-19.05 -38.91,-28.64 -66.38,-28.64 -26.3,0 -47.72,9.74 -64.55,29.07 -16.82,19.47 -27.08,48.12 -30.62,86.08z"/>
   <path id="_20_19" class="fil3" d="M12116.41 2452.72c0,31.04 -7.1,57.71 -21.17,79.87 -14.06,22.15 -34.96,38.95 -62.57,50.38 -27.6,11.43 -61.12,17.07 -100.69,17.07 -37.72,0 -70.06,-6.21 -97.01,-18.63 -26.95,-12.27 -46.79,-27.8 -59.67,-46.42 -12.75,-18.49 -19.2,-37.11 -19.2,-55.88 0,-12.42 4.08,-23 12.36,-31.75 8.15,-8.89 18.54,-13.27 31.15,-13.27 11.05,0 19.46,2.97 25.38,8.75 5.91,5.79 11.56,13.83 16.95,24.41 10.78,20.04 23.66,35.14 38.65,45.02 14.98,10.02 35.49,14.96 61.39,14.96 21.02,0 38.25,-5.08 51.65,-15.1 13.55,-10.02 20.24,-21.59 20.24,-34.57 0,-19.9 -6.95,-34.3 -20.89,-43.47 -14.07,-9.03 -37.08,-17.78 -69.15,-26.1 -36.14,-9.6 -65.59,-19.76 -88.33,-30.34 -22.61,-10.59 -40.75,-24.7 -54.42,-42.05 -13.54,-17.36 -20.38,-38.81 -20.38,-64.07 0,-22.72 6.32,-44.02 18.8,-64.2 12.62,-20.18 31.16,-36.13 55.73,-48.12 24.46,-12 54.03,-18.07 88.73,-18.07 27.21,0 51.67,2.97 73.22,9.04 21.7,6.06 39.83,14.25 54.29,24.41 14.6,10.3 25.64,21.59 33.13,34.01 7.63,12.41 11.43,24.41 11.43,36.4 0,12.84 -4.08,23.57 -12.22,31.75 -8.02,8.33 -19.59,12.42 -34.44,12.42 -10.78,0 -19.98,-3.24 -27.61,-9.88 -7.49,-6.63 -16.17,-16.51 -26.02,-29.77 -7.89,-11.01 -17.22,-19.9 -28,-26.53 -10.78,-6.63 -25.37,-9.88 -43.91,-9.88 -18.93,0 -34.7,4.38 -47.32,12.98 -12.48,8.75 -18.8,19.62 -18.8,32.6 0,11.85 4.6,21.59 13.81,29.07 9.33,7.62 21.68,13.97 37.33,18.91 15.64,4.94 37.2,11.01 64.67,18.2 32.6,8.47 59.28,18.77 79.93,30.62 20.63,11.86 36.28,25.83 46.93,42.05 10.64,16.09 16.03,34.44 16.03,55.18z"/>
   <g>
    <path class="fil4" d="M2328.1 2512.8c-68.32,-62 -259.12,-238.43 -302.79,-294.85 -86.61,-102.86 -116.94,-142.74 -180.95,-258.66 -25.18,-47.58 -36.91,-116.27 -48.63,-158.74 -13.77,-49.9 -12.81,-103.55 -7.11,-158.61 3.07,-29.7 11.74,-60.44 32.59,-86 75.25,-92.26 224.36,78.78 268.45,127.64 164.33,213.58 215.01,353.15 287.64,596.17 25.77,86.22 26.35,188.8 50.56,282.56 6.68,25.12 5.47,6.39 11.01,39.26 50,-54.17 81.95,-244.71 89.47,-318.35 26.81,-262.52 -39.78,-587.56 -135.32,-833.13 -21.94,-56.38 -67.75,-160.69 -97.43,-212.98 -8.05,-14.17 -7.27,-16.85 -13.68,-30.54 -17.19,-36.73 -46.24,-79.29 -67.66,-115.75 -85.83,-146.1 -231.66,-324.82 -394.89,-405.4 -275.35,-135.93 -241.95,275.14 -259.25,448.32 -6,60.05 -16.25,107.07 -47.66,158.29 -51.67,84.24 -121.51,181.8 -139.36,308.07 -14.76,104.48 -1.25,207.77 38.03,284 6.81,13.22 9.61,16.32 15.11,29.83 5.51,13.53 5.94,15.95 16.42,29.18 52.45,66.27 46.94,79.32 136.36,156.3 19.17,16.49 34.95,32.18 55.47,47.12 21.75,15.84 43.03,27.94 65.23,42.27 210.24,135.69 467.33,270.87 688.58,407.4 -12.45,-29.43 -37.01,-57.86 -60.19,-83.4z"/>
    <path class="fil5" d="M969.45 3058.98c66.27,28.66 297.3,65.83 366.74,71.63 196.79,16.42 435.87,-19.7 603.36,-103.52 182.37,-91.25 332.19,-197.25 443.22,-375.85 -23.32,5.49 -20.03,7.82 -42.82,19.39l-276.73 113.4c-146.24,49.93 -326.02,89.35 -510.29,38.94 -219.58,-60.08 -103.61,-174.35 58.43,-223.38 154.37,-46.71 318.4,-43.06 483.47,-15.39l210.39 42.73c32.27,4.37 47.18,18.32 66.23,5.05 -23.98,-8.61 -90.74,-58.96 -114.32,-75.97 -36.18,-26.1 -83.31,-53.51 -123.79,-75.41 -214.91,-116.28 -582.79,-243.03 -827.14,-138.71l-52.53 25.93c-68.89,39.22 -120.39,103.74 -139.87,200.35 -10.47,51.93 -6.42,126.44 7.73,178.73 44.97,166.11 -437.02,212.82 -152.08,312.08z"/>
    <path class="fil4" d="M1863.32 3156.7c42.8,-3.44 128.55,-22.92 168.45,-36.27 82.02,-27.44 153.8,-53.01 231.69,-97.79 60.38,-34.71 116.88,-74.29 170.46,-117.37l96.32 -82.12c111.25,-109.02 202.18,-214.84 276.34,-352.28 23.91,-44.32 32.01,-49.31 50.51,-106.21 21.57,-66.36 -46.73,-125.22 -119.71,-119.1 -83.38,6.98 -92.27,66.06 -131.67,144.98 -16.89,33.84 -31.08,70.71 -45.53,99.31 -17.76,35.17 -33.02,67.52 -50.7,98.2 -33.74,58.56 -76.56,119.55 -118.02,168.15 -224.23,262.9 -770.73,419.99 -528.14,400.5z"/>
    <path class="fil4" d="M2790.85 1652.58c45.15,208.48 -12.92,400.47 -78.92,603.5 53.04,87.86 133.49,-432.37 134.97,-465.38 2.76,-61.68 4.75,-240.03 -69.13,-260.25 -41.63,-11.39 -172.5,54.95 13.08,122.13z"/>
    <path class="fil4" d="M2801.7 2282.52c15.55,8.15 5.52,5.96 21.07,14.11 34.62,-98.47 301.07,-341.61 425.26,-376.98 23.39,12.26 44.69,35.2 89.57,21.7 41.78,-12.57 50.57,-54.53 31.87,-77.89 -29.61,-37 -92.53,-26.96 -119.7,-2.33 -19.3,17.48 -6.64,13.6 -33.81,27.04l-75.23 41.1c-126.06,71.56 -298.43,237.78 -339.03,353.25z"/>
   </g>
   <line class="fil1 str0" x1="10842.57" y1="3172.29" x2="11442.57" y2= "3172.29" />
  </g>
 </g>
</svg>
