<?xml version="1.0" encoding="UTF-8"?>
<!DOCTYPE svg PUBLIC "-//W3C//DTD SVG 1.1//EN" "http://www.w3.org/Graphics/SVG/1.1/DTD/svg11.dtd">
<!-- Creator: CorelDRAW 2021 (64-Bit) -->
<svg xmlns="http://www.w3.org/2000/svg" xml:space="preserve" width="90mm" height="40mm" version="1.1" style="shape-rendering:geometricPrecision; text-rendering:geometricPrecision; image-rendering:optimizeQuality; fill-rule:evenodd; clip-rule:evenodd"
viewBox="0 0 9000 4000"
 xmlns:xlink="http://www.w3.org/1999/xlink"
 xmlns:xodm="http://www.corel.com/coreldraw/odm/2003">
 <defs>
  <style type="text/css">
   <![CDATA[
    .fil2 {fill:#16325B}
    .fil3 {fill:#4192D9}
    .fil4 {fill:#16325B;fill-rule:nonzero}
    .fil1 {fill:#4192D9;fill-rule:nonzero}
    .fil0 {fill:gray;fill-rule:nonzero}
   ]]>
  </style>
 </defs>
 <g id="Layer_x0020_1">
  <metadata id="CorelCorpID_0Corel-Layer"/>
  <path class="fil0" d="M3372.81 3085.6l69.85 -176.67 27.1 0 69.85 176.67 -28.84 0 -16.74 -44.31 -80.81 0 -17.03 44.31 -23.38 0zm48.55 -64.63l64.58 0 -32.41 -84.38 -32.17 84.38z"/>
  <path id="_1" class="fil0" d="M3734.51 2908.93l27.09 0 0 107.29c0,18.72 2.96,32.32 8.89,40.69 5.93,8.42 15.52,12.6 28.74,12.6 13.97,0 24.03,-4.18 30.2,-12.6 6.16,-8.37 9.22,-22.2 9.22,-41.39l0 -106.59 23.7 0 0 102.59c0,22.1 -2.63,37.96 -7.85,47.6 -11.1,20.46 -29.45,30.71 -54.99,30.71 -22.11,0 -38.47,-6.06 -49.11,-18.15 -10.58,-12.14 -15.89,-30.76 -15.89,-55.93l0 -106.82z"/>
  <path id="_2" class="fil0" d="M3910.64 3085.6l0 -149.58 27.09 0 0 28.04c12.51,-20.93 29.54,-31.42 51.04,-31.42 28.45,0 42.66,16.84 42.66,50.56l0 102.4 -27.1 0 0 -95.01c0,-11.67 -1.83,-19.99 -5.45,-24.89 -3.62,-4.94 -9.74,-7.38 -18.3,-7.38 -13.64,0 -27.94,9.83 -42.85,29.44l0 97.84 -27.09 0z"/>
  <path id="_3" class="fil0" d="M4135.87 3085.6l0 -129.26 -54.46 0 0 -20.32 81.56 0 0 149.58 -27.1 0zm-3.66 -183.44l0 -34.15 34.14 0 0 34.15 -34.14 0z"/>
  <path id="_4" class="fil0" d="M4381.71 3085.41c-13.59,2.4 -26.71,3.58 -39.37,3.58 -22.1,0 -37.2,-3.95 -45.15,-11.9 -8,-7.95 -11.99,-23 -11.99,-45.16l0 -72.2 -37.26 0 0 -20.32 37.26 0 0 -32.17 27.09 0 0 32.17 66.32 0 0 20.32 -66.32 0 0 76.67c0,8.56 0.52,14.44 1.6,17.64 1.03,3.24 3.34,6.02 6.82,8.42 6.25,4.14 15.38,6.21 27.33,6.21 11.33,0 22.53,-1.27 33.67,-3.86l0 20.6z"/>
  <path id="_5" class="fil0" d="M4580.57 2997.03c0,-28.18 6.91,-50.71 20.79,-67.45 13.83,-16.79 32.45,-25.17 55.83,-25.17 23.38,0 42,8.38 55.83,25.17 13.88,16.74 20.79,39.27 20.79,67.45 0,28.32 -6.91,50.89 -20.79,67.64 -13.83,16.79 -32.45,25.16 -55.83,25.16 -23.38,0 -42,-8.37 -55.83,-25.16 -13.88,-16.75 -20.79,-39.32 -20.79,-67.64zm29.07 0c0,23.19 4.09,41.06 12.32,53.62 8.18,12.56 19.94,18.86 35.18,18.86 15.2,0 26.95,-6.3 35.23,-18.86 8.23,-12.56 12.37,-30.43 12.37,-53.62 0,-23.1 -4.14,-40.92 -12.37,-53.48 -8.28,-12.56 -20.03,-18.82 -35.23,-18.82 -15.24,0 -27,6.26 -35.18,18.82 -8.23,12.56 -12.32,30.38 -12.32,53.48z"/>
  <path id="_6" class="fil0" d="M4805.52 3085.6l0 -125.87 -40.92 0 0 -20.32 40.92 0 0 -15.85c0,-20.93 4.89,-35.98 14.63,-45.16 9.74,-9.17 25.73,-13.78 47.98,-13.78 14.72,0 28.64,1.98 41.81,5.93l0 21.4c-13.45,-4.66 -26.71,-7.01 -39.79,-7.01 -13.88,0 -23.61,2.64 -29.16,7.95 -5.6,5.27 -8.38,14.54 -8.38,27.75l0 18.77 71.69 0 0 20.32 -71.69 0 0 125.87 -27.09 0z"/>
  <path id="_7" class="fil0" d="M5225.63 2912.79l0 23.52c-19.89,-7.72 -37.58,-11.58 -53.05,-11.58 -24.46,0 -36.69,8.28 -36.69,24.89 0,6.72 2.3,12.13 6.87,16.22 4.56,4.1 13.07,8.28 25.4,12.61l17.35 6.07 16.47 5.64c25.54,8.99 38.33,24.27 38.33,45.77 0,16.37 -6.54,29.44 -19.61,39.23 -13.08,9.78 -30.63,14.67 -52.54,14.67 -15.24,0 -34.95,-3.24 -59.08,-9.73l0 -26.86c24.03,10.86 43.98,16.27 59.83,16.27 13.4,0 24.08,-2.63 32.08,-7.95 7.95,-5.31 11.94,-12.41 11.94,-21.35 0,-6.82 -2.35,-12.18 -7.1,-16.13 -4.7,-3.96 -14.49,-8.66 -29.25,-14.07l-18.16 -6.63c-18.11,-6.68 -30.67,-13.59 -37.68,-20.65 -7.01,-7.1 -10.53,-16.51 -10.53,-28.27 0,-15.9 5.41,-28.22 16.18,-36.97 10.82,-8.7 26.01,-13.08 45.62,-13.08 15.9,0 33.77,2.78 53.62,8.38z"/>
  <path id="_8" class="fil0" d="M5283.8 3085.6l0 -217.59 27.09 0 0 67.92 0 28.13c12.51,-20.93 29.54,-31.42 51.04,-31.42 28.45,0 42.66,16.84 42.66,50.56l0 102.4 -27.1 0 0 -95.01c0,-11.67 -1.83,-19.99 -5.45,-24.89 -3.62,-4.94 -9.74,-7.38 -18.3,-7.38 -13.64,0 -27.94,9.83 -42.85,29.44l0 97.84 -27.09 0z"/>
  <path id="_9" class="fil0" d="M5545.77 3067.44c-16.46,13.79 -32.83,20.7 -49.2,20.7 -13.64,0 -24.93,-3.9 -33.77,-11.71 -8.89,-7.76 -13.31,-17.64 -13.31,-29.54 0,-15.52 6.86,-27.99 20.65,-37.44 13.78,-9.46 31.98,-14.16 54.56,-14.16l16.79 0 0 -12.89c0,-10.58 -2.35,-18.15 -7.01,-22.67 -4.7,-4.52 -12.46,-6.77 -23.28,-6.77 -15.71,0 -31.94,4.42 -48.73,13.21l0 -23.23c19.24,-6.87 37.3,-10.3 54.14,-10.3 19,0 32.41,3.76 40.21,11.29 7.86,7.52 11.76,20.55 11.76,38.99l0 62.75c0,8.98 0.99,15.14 2.92,18.39 1.93,3.24 5.55,4.89 10.87,4.89 1.74,0 4.6,-0.47 8.56,-1.37l2.49 16.19c-9.08,2.91 -15.95,4.37 -20.6,4.37 -13.36,0 -22.39,-6.91 -27.05,-20.7zm-4.28 -17.54l0 -37.68 -8.09 0c-37.11,0 -55.69,10.02 -55.69,30.11 0,7.24 2.4,13.07 7.15,17.49 4.75,4.38 11.1,6.59 18.95,6.59 11.86,0 24.42,-5.5 37.68,-16.51z"/>
  <polygon id="_10" class="fil0" points="5684.6,3085.6 5684.6,2888.33 5626.75,2888.33 5626.75,2868.01 5711.69,2868.01 5711.69,3085.6 "/>
  <polygon id="_11" class="fil0" points="5856.78,3085.6 5856.78,2888.33 5798.93,2888.33 5798.93,2868.01 5883.87,2868.01 5883.87,3085.6 "/>
  <path id="_12" class="fil0" d="M6062.31 3067.44c-16.46,13.79 -32.83,20.7 -49.2,20.7 -13.64,0 -24.93,-3.9 -33.77,-11.71 -8.89,-7.76 -13.31,-17.64 -13.31,-29.54 0,-15.52 6.86,-27.99 20.65,-37.44 13.78,-9.46 31.98,-14.16 54.56,-14.16l16.79 0 0 -12.89c0,-10.58 -2.35,-18.15 -7.01,-22.67 -4.7,-4.52 -12.46,-6.77 -23.28,-6.77 -15.71,0 -31.94,4.42 -48.73,13.21l0 -23.23c19.24,-6.87 37.3,-10.3 54.14,-10.3 19,0 32.41,3.76 40.21,11.29 7.86,7.52 11.76,20.55 11.76,38.99l0 62.75c0,8.98 0.99,15.14 2.92,18.39 1.93,3.24 5.55,4.89 10.87,4.89 1.74,0 4.6,-0.47 8.56,-1.37l2.49 16.19c-9.08,2.91 -15.95,4.37 -20.6,4.37 -13.36,0 -22.39,-6.91 -27.05,-20.7zm-4.28 -17.54l0 -37.68 -8.09 0c-37.11,0 -55.69,10.02 -55.69,30.11 0,7.24 2.4,13.07 7.15,17.49 4.75,4.38 11.1,6.59 18.95,6.59 11.86,0 24.42,-5.5 37.68,-16.51z"/>
  <polygon id="_13" class="fil0" points="6190.14,3085.6 6128.05,2936.02 6155.8,2936.02 6205.75,3055.83 6257.02,2936.02 6281.29,2936.02 6217.51,3085.6 "/>
  <path id="_14" class="fil0" d="M6406.67 3067.44c-16.46,13.79 -32.83,20.7 -49.2,20.7 -13.64,0 -24.93,-3.9 -33.77,-11.71 -8.89,-7.76 -13.31,-17.64 -13.31,-29.54 0,-15.52 6.86,-27.99 20.65,-37.44 13.78,-9.46 31.98,-14.16 54.56,-14.16l16.79 0 0 -12.89c0,-10.58 -2.35,-18.15 -7.01,-22.67 -4.7,-4.52 -12.46,-6.77 -23.28,-6.77 -15.71,0 -31.94,4.42 -48.73,13.21l0 -23.23c19.24,-6.87 37.3,-10.3 54.14,-10.3 19,0 32.41,3.76 40.21,11.29 7.86,7.52 11.76,20.55 11.76,38.99l0 62.75c0,8.98 0.99,15.14 2.92,18.39 1.93,3.24 5.55,4.89 10.87,4.89 1.74,0 4.6,-0.47 8.56,-1.37l2.49 16.19c-9.08,2.91 -15.95,4.37 -20.6,4.37 -13.36,0 -22.39,-6.91 -27.05,-20.7zm-4.28 -17.54l0 -37.68 -8.09 0c-37.11,0 -55.69,10.02 -55.69,30.11 0,7.24 2.4,13.07 7.15,17.49 4.75,4.38 11.1,6.59 18.95,6.59 11.86,0 24.42,-5.5 37.68,-16.51z"/>
  <path id="_15" class="fil0" d="M6506.27 3085.6l0 -149.58 27.1 0 0 28.04c13.82,-20.93 32.36,-31.42 55.64,-31.42 8.18,0 17.5,1.13 27.89,3.43l0 42.57 -20.32 0 0 -20.93c-4.04,-0.9 -7.76,-1.37 -11.05,-1.37 -10.44,0 -19.57,2.4 -27.47,7.25 -7.9,4.79 -16.13,13.03 -24.69,24.6l0 97.41 -27.1 0z"/>
  <path id="_16" class="fil0" d="M6959.69 2912.36l0 24.93c-18.16,-8.37 -35.14,-12.56 -50.94,-12.56 -18.25,0 -33.3,6.73 -45.11,20.14 -11.81,13.4 -17.69,30.48 -17.69,51.27 0,20.83 6.68,37.95 19.99,51.36 13.31,13.36 30.34,20.04 50.99,20.04 4.71,0 10.68,-0.57 17.92,-1.65l0 -46.61 -33.3 0 0 -20.32 60.4 0 0 82.08c-18.49,5.88 -35.99,8.79 -52.54,8.79 -27.38,0 -49.68,-8.51 -66.8,-25.49 -17.16,-17.03 -25.73,-39.14 -25.73,-66.32 0,-27.85 8.57,-50.43 25.64,-67.69 17.07,-17.26 39.42,-25.92 66.98,-25.92 15.62,0 32.36,2.64 50.19,7.95z"/>
  <path id="_17" class="fil0" d="M7020.67 3085.6l0 -149.58 27.1 0 0 28.04c13.82,-20.93 32.36,-31.42 55.64,-31.42 8.18,0 17.5,1.13 27.89,3.43l0 42.57 -20.32 0 0 -20.93c-4.04,-0.9 -7.76,-1.37 -11.05,-1.37 -10.44,0 -19.57,2.4 -27.47,7.25 -7.9,4.79 -16.13,13.03 -24.69,24.6l0 97.41 -27.1 0z"/>
  <path id="_18" class="fil0" d="M7235.47 3088.99c-21.97,0 -39.23,-6.96 -51.74,-20.89 -12.56,-13.87 -18.82,-33.02 -18.82,-57.38 0,-24.23 6.31,-43.32 18.86,-57.2 12.61,-13.92 29.83,-20.88 51.7,-20.88 21.96,0 39.23,6.96 51.74,20.88 12.56,13.88 18.81,32.97 18.81,57.2 0,24.36 -6.25,43.51 -18.81,57.38 -12.51,13.93 -29.78,20.89 -51.74,20.89zm0 -20.32c13.03,0 23.19,-5.08 30.48,-15.29 7.34,-10.21 11,-24.41 11,-42.66 0,-18.11 -3.66,-32.27 -11,-42.48 -7.29,-10.2 -17.45,-15.28 -30.48,-15.28 -12.98,0 -23.19,5.08 -30.48,15.28 -7.34,10.21 -11.01,24.37 -11.01,42.48 0,18.25 3.67,32.45 11.01,42.66 7.29,10.21 17.5,15.29 30.48,15.29z"/>
  <path id="_19" class="fil0" d="M7467.76 2936.02l0 149.58 -27.09 0 0 -28.17c-12.51,21.02 -29.59,31.56 -51.18,31.56 -28.36,0 -42.52,-16.89 -42.52,-50.66l0 -102.31 27.09 0 0 94.92c0,11.76 1.79,20.09 5.41,24.98 3.58,4.94 9.69,7.38 18.35,7.38 13.64,0 27.94,-9.87 42.85,-29.58l0 -97.7 27.09 0z"/>
  <path id="_20" class="fil0" d="M7519.43 3140.07l0 -204.05 27.1 0 0 28.13c13.17,-21.02 29.49,-31.51 48.96,-31.51 17.03,0 30.43,6.53 40.22,19.61 9.78,13.12 14.67,30.95 14.67,53.53 0,24.79 -5.78,44.87 -17.35,60.21 -11.62,15.33 -26.77,23 -45.53,23 -16.09,0 -29.73,-6.82 -40.97,-20.42l0 71.5 -27.1 0zm27.1 -91.82c12.56,13.6 24.97,20.42 37.2,20.42 11.9,0 21.17,-5.27 27.75,-15.81 6.54,-10.49 9.83,-25.21 9.83,-44.16 0,-35.28 -10.53,-52.92 -31.56,-52.92 -15.33,0 -29.72,9.55 -43.22,28.69l0 63.78z"/>
  <path class="fil1" d="M3654.45 1527.04c0,36.55 -8.81,69.43 -26.42,98.64 -17.48,29.21 -43.25,52.07 -77.16,68.58 -33.91,16.51 -74.13,24.69 -120.54,24.69 -55.74,0 -101.75,-11.29 -137.89,-33.73 -25.63,-16.22 -46.41,-37.95 -62.44,-65.05 -16.04,-27.09 -24.05,-53.48 -24.05,-79.16 0,-14.82 4.86,-27.52 14.46,-38.24 9.59,-10.59 21.81,-15.81 36.67,-15.81 12.09,0 22.22,4.09 30.5,12.42 8.41,8.18 15.51,20.46 21.42,36.83 7.1,19.19 14.98,35.42 23.26,48.26 8.42,12.98 20.12,23.71 35.23,32.17 15.25,8.33 35.1,12.56 59.82,12.56 33.78,0 61.39,-8.46 82.55,-25.4 21.16,-16.93 31.8,-38.1 31.8,-63.5 0,-20.18 -5.64,-36.55 -17.08,-48.96 -11.44,-12.56 -26.29,-22.16 -44.44,-28.79 -18,-6.63 -42.31,-13.69 -72.55,-21.17 -40.49,-10.16 -74.53,-22.15 -101.74,-35.7 -27.34,-13.69 -49.03,-32.31 -65.07,-55.88 -16.04,-23.56 -24.05,-52.77 -24.05,-87.91 0,-33.3 8.41,-62.94 25.36,-88.9 16.96,-25.82 41.54,-45.72 73.61,-59.69 32.08,-13.97 69.8,-20.89 113.18,-20.89 34.57,0 64.55,4.66 89.91,13.83 25.24,9.32 46.27,21.59 62.97,36.83 16.56,15.24 28.79,31.33 36.54,48.12 7.63,16.79 11.57,33.3 11.57,49.25 0,14.53 -4.86,27.8 -14.46,39.51 -9.59,11.71 -21.68,17.5 -36.02,17.5 -13.14,0 -23,-3.53 -29.84,-10.44 -6.83,-7.06 -14.19,-18.63 -22.08,-34.58 -10.38,-22.86 -22.61,-40.78 -37.07,-53.62 -14.33,-12.84 -37.47,-19.19 -69.41,-19.19 -29.43,0 -53.37,6.92 -71.37,20.89 -18.14,13.97 -27.21,30.62 -27.21,50.23 0,12.14 3.03,22.58 9.2,31.47 6.18,8.75 14.72,16.37 25.5,22.72 10.78,6.35 21.69,11.29 32.73,14.96 11.04,3.52 29.32,8.75 54.68,15.66 31.81,8.04 60.74,16.79 86.5,26.53 25.76,9.59 47.72,21.31 65.85,35.14 18.15,13.68 32.21,31.18 42.33,52.21 10.13,21.16 15.25,46.99 15.25,77.61z"/>
  <path id="_1_0" class="fil1" d="M3860.07 1160.99l0 167.22c13.4,-16.51 26.42,-29.63 39.17,-39.23 12.62,-9.59 26.68,-16.93 42.06,-21.73 15.52,-4.8 32.08,-7.2 49.83,-7.2 26.68,0 50.34,6.07 71.11,18.21 20.63,12.13 36.81,29.77 48.64,52.92 7.49,13.4 12.48,28.5 15.11,45.29 2.5,16.65 3.81,35.84 3.81,57.58l0 216.32c0,22.58 -4.86,39.65 -14.45,51.22 -9.6,11.57 -22.48,17.36 -38.39,17.36 -34.7,0 -52.06,-22.86 -52.06,-68.58l0 -190.64c0,-36.13 -4.99,-63.93 -14.98,-83.26 -9.99,-19.47 -29.05,-29.21 -57.05,-29.21 -18.67,0 -35.62,5.79 -50.61,17.22 -14.98,11.43 -26.29,26.95 -33.65,46.85 -5.65,16.79 -8.54,46.7 -8.54,89.74l0 149.3c0,22.3 -4.73,39.23 -14.07,50.94 -9.33,11.71 -22.34,17.64 -38.91,17.64 -34.57,0 -51.92,-22.86 -51.92,-68.58l0 -489.38c0,-22.86 4.6,-39.93 13.68,-51.36 9.06,-11.43 21.81,-17.22 38.24,-17.22 16.57,0 29.58,5.79 38.91,17.36 9.34,11.57 14.07,28.65 14.07,51.22z"/>
  <path id="_2_1" class="fil1" d="M4512.75 1655.59c-25.51,21.17 -50.09,36.97 -73.75,47.56 -23.79,10.58 -50.47,15.8 -79.92,15.8 -26.95,0 -50.74,-5.79 -71.11,-17.22 -20.38,-11.43 -36.15,-26.81 -47.19,-46.42 -11.05,-19.62 -16.56,-40.78 -16.56,-63.64 0,-30.91 9.06,-57.15 27.34,-78.88 18.26,-21.88 43.37,-36.41 75.32,-43.89 6.57,-1.69 23.13,-5.36 49.55,-11.15 26.43,-5.78 49.16,-11 67.96,-15.94 18.8,-4.8 39.3,-10.59 61.39,-17.5 -1.31,-29.78 -6.84,-51.65 -16.69,-65.48 -10,-13.97 -30.37,-20.88 -61.52,-20.88 -26.69,0 -46.8,3.95 -60.21,11.99 -13.54,7.91 -25.1,19.9 -34.71,35.99 -9.59,15.94 -16.43,26.38 -20.37,31.61 -4.07,5.08 -12.62,7.62 -25.63,7.62 -11.83,0 -22.08,-4.1 -30.62,-12.28 -8.55,-8.04 -12.89,-18.49 -12.89,-31.19 0,-19.89 6.57,-39.23 19.58,-57.99 13.15,-18.77 33.53,-34.15 61.26,-46.29 27.74,-12.13 62.31,-18.2 103.72,-18.2 46.14,0 82.55,5.92 108.97,17.64 26.42,11.71 45.09,30.2 55.99,55.6 10.92,25.4 16.44,58.98 16.44,100.89 0,26.53 -0.13,48.97 -0.26,67.45 -0.13,18.49 -0.27,39.09 -0.53,61.67 0,21.16 3.28,43.32 9.86,66.32 6.57,22.86 9.72,37.68 9.72,44.31 0,11.57 -4.99,22.15 -15.11,31.61 -10.25,9.45 -21.69,14.25 -34.57,14.25 -10.78,0 -21.43,-5.36 -31.95,-16.23 -10.51,-10.86 -21.68,-26.53 -33.51,-47.13zm-6.97 -163.55c-15.38,6.07 -37.73,12.56 -67.17,19.19 -29.32,6.78 -49.69,11.86 -61,14.96 -11.3,3.25 -22.08,9.46 -32.33,18.63 -10.26,9.31 -15.38,22.15 -15.38,38.8 0,17.08 6.04,31.61 18.13,43.61 11.97,11.99 27.75,18.06 47.33,18.06 20.77,0 39.96,-4.94 57.44,-14.68 17.62,-9.87 30.5,-22.43 38.78,-37.95 9.47,-17.08 14.2,-45.3 14.2,-84.53l0 -16.09z"/>
  <path id="_3_2" class="fil1" d="M4728.87 1650.37l0 -489.38c0,-22.57 4.74,-39.65 14.07,-51.22 9.33,-11.57 21.95,-17.36 37.86,-17.36 15.77,0 28.65,5.79 38.38,17.22 9.73,11.43 14.59,28.5 14.59,51.36l0 489.38c0,22.86 -4.99,39.93 -14.86,51.36 -9.85,11.43 -22.6,17.22 -38.11,17.22 -15.38,0 -27.87,-5.93 -37.47,-17.78 -9.59,-11.85 -14.46,-28.79 -14.46,-50.8z"/>
  <path id="_4_3" class="fil1" d="M4955.78 1650.37l0 -489.38c0,-22.57 4.74,-39.65 14.07,-51.22 9.33,-11.57 21.95,-17.36 37.86,-17.36 15.77,0 28.65,5.79 38.38,17.22 9.73,11.43 14.59,28.5 14.59,51.36l0 489.38c0,22.86 -4.99,39.93 -14.85,51.36 -9.86,11.43 -22.61,17.22 -38.12,17.22 -15.38,0 -27.87,-5.93 -37.47,-17.78 -9.59,-11.85 -14.46,-28.79 -14.46,-50.8z"/>
  <path id="_5_4" class="fil1" d="M5448.36 1655.59c-25.5,21.17 -50.09,36.97 -73.75,47.56 -23.79,10.58 -50.47,15.8 -79.92,15.8 -26.94,0 -50.74,-5.79 -71.11,-17.22 -20.38,-11.43 -36.15,-26.81 -47.19,-46.42 -11.05,-19.62 -16.56,-40.78 -16.56,-63.64 0,-30.91 9.06,-57.15 27.34,-78.88 18.27,-21.88 43.37,-36.41 75.32,-43.89 6.57,-1.69 23.13,-5.36 49.55,-11.15 26.43,-5.78 49.17,-11 67.96,-15.94 18.8,-4.8 39.31,-10.59 61.39,-17.5 -1.31,-29.78 -6.83,-51.65 -16.69,-65.48 -10,-13.97 -30.37,-20.88 -61.52,-20.88 -26.69,0 -46.8,3.95 -60.2,11.99 -13.55,7.91 -25.11,19.9 -34.71,35.99 -9.6,15.94 -16.43,26.38 -20.38,31.61 -4.07,5.08 -12.62,7.62 -25.63,7.62 -11.83,0 -22.08,-4.1 -30.62,-12.28 -8.55,-8.04 -12.88,-18.49 -12.88,-31.19 0,-19.89 6.56,-39.23 19.58,-57.99 13.14,-18.77 33.52,-34.15 61.25,-46.29 27.75,-12.13 62.32,-18.2 103.72,-18.2 46.14,0 82.55,5.92 108.97,17.64 26.42,11.71 45.09,30.2 56,55.6 10.91,25.4 16.43,58.98 16.43,100.89 0,26.53 -0.13,48.97 -0.26,67.45 -0.13,18.49 -0.26,39.09 -0.52,61.67 0,21.16 3.28,43.32 9.85,66.32 6.57,22.86 9.73,37.68 9.73,44.31 0,11.57 -5,22.15 -15.12,31.61 -10.25,9.45 -21.69,14.25 -34.57,14.25 -10.78,0 -21.43,-5.36 -31.94,-16.23 -10.52,-10.86 -21.69,-26.53 -33.52,-47.13zm-6.97 -163.55c-15.38,6.07 -37.72,12.56 -67.17,19.19 -29.32,6.78 -49.69,11.86 -61,14.96 -11.3,3.25 -22.07,9.46 -32.33,18.63 -10.26,9.31 -15.38,22.15 -15.38,38.8 0,17.08 6.05,31.61 18.14,43.61 11.97,11.99 27.74,18.06 47.32,18.06 20.77,0 39.96,-4.94 57.45,-14.68 17.61,-9.87 30.49,-22.43 38.78,-37.95 9.46,-17.08 14.19,-45.3 14.19,-84.53l0 -16.09z"/>
  <path id="_6_5" class="fil1" d="M5719.17 1330.33l85.05 256.54 91.61 -267.69c7.23,-21.45 14.2,-36.69 21.17,-45.72 6.96,-8.89 17.48,-13.41 31.55,-13.41 13.4,0 24.71,4.8 34.04,14.54 9.34,9.59 14.07,20.74 14.07,33.44 0,4.94 -0.79,10.73 -2.51,17.36 -1.7,6.63 -3.54,12.84 -5.77,18.63 -2.24,5.78 -4.74,12.41 -7.5,19.75l-100.82 268.82c-2.9,7.62 -6.45,17.5 -11.04,29.35 -4.47,11.85 -9.46,21.87 -14.99,30.34 -5.52,8.47 -12.36,14.96 -20.37,19.61 -8.15,4.66 -17.88,7.06 -29.44,7.06 -14.86,0 -26.69,-3.67 -35.63,-11.01 -8.81,-7.19 -15.38,-15.24 -19.59,-23.99 -4.2,-8.6 -11.44,-25.82 -21.42,-51.36l-100.04 -265.85c-2.37,-6.64 -4.73,-13.27 -7.1,-19.9 -2.49,-6.63 -4.46,-13.27 -6.17,-20.18 -1.71,-6.91 -2.5,-12.84 -2.5,-17.78 0,-7.76 2.24,-15.38 6.58,-23 4.33,-7.62 10.37,-13.83 18,-18.63 7.75,-4.8 16.03,-7.2 25.11,-7.2 17.35,0 29.44,5.37 36.01,16.09 6.45,10.87 13.68,28.93 21.7,54.19z"/>
  <path id="_7_6" class="fil1" d="M6340.82 1655.59c-25.5,21.17 -50.08,36.97 -73.75,47.56 -23.79,10.58 -50.47,15.8 -79.91,15.8 -26.95,0 -50.74,-5.79 -71.11,-17.22 -20.39,-11.43 -36.16,-26.81 -47.2,-46.42 -11.04,-19.62 -16.56,-40.78 -16.56,-63.64 0,-30.91 9.07,-57.15 27.34,-78.88 18.27,-21.88 43.37,-36.41 75.33,-43.89 6.56,-1.69 23.13,-5.36 49.54,-11.15 26.43,-5.78 49.17,-11 67.97,-15.94 18.8,-4.8 39.3,-10.59 61.39,-17.5 -1.32,-29.78 -6.84,-51.65 -16.7,-65.48 -9.99,-13.97 -30.36,-20.88 -61.51,-20.88 -26.69,0 -46.81,3.95 -60.21,11.99 -13.54,7.91 -25.1,19.9 -34.71,35.99 -9.59,15.94 -16.43,26.38 -20.37,31.61 -4.07,5.08 -12.62,7.62 -25.64,7.62 -11.83,0 -22.07,-4.1 -30.62,-12.28 -8.55,-8.04 -12.88,-18.49 -12.88,-31.19 0,-19.89 6.57,-39.23 19.58,-57.99 13.15,-18.77 33.53,-34.15 61.26,-46.29 27.74,-12.13 62.31,-18.2 103.72,-18.2 46.13,0 82.55,5.92 108.97,17.64 26.41,11.71 45.08,30.2 55.99,55.6 10.92,25.4 16.43,58.98 16.43,100.89 0,26.53 -0.13,48.97 -0.26,67.45 -0.13,18.49 -0.26,39.09 -0.52,61.67 0,21.16 3.28,43.32 9.86,66.32 6.56,22.86 9.72,37.68 9.72,44.31 0,11.57 -4.99,22.15 -15.12,31.61 -10.24,9.45 -21.68,14.25 -34.57,14.25 -10.77,0 -21.42,-5.36 -31.94,-16.23 -10.52,-10.86 -21.69,-26.53 -33.52,-47.13zm-6.96 -163.55c-15.38,6.07 -37.73,12.56 -67.18,19.19 -29.31,6.78 -49.68,11.86 -60.99,14.96 -11.3,3.25 -22.08,9.46 -32.34,18.63 -10.25,9.31 -15.38,22.15 -15.38,38.8 0,17.08 6.05,31.61 18.14,43.61 11.97,11.99 27.74,18.06 47.32,18.06 20.78,0 39.97,-4.94 57.45,-14.68 17.62,-9.87 30.5,-22.43 38.78,-37.95 9.46,-17.08 14.2,-45.3 14.2,-84.53l0 -16.09z"/>
  <path id="_8_7" class="fil1" d="M6661.06 1556.11l0 94.26c0,22.86 -5,39.93 -14.99,51.36 -9.99,11.43 -22.61,17.22 -37.99,17.22 -15.12,0 -27.6,-5.79 -37.33,-17.36 -9.73,-11.57 -14.59,-28.64 -14.59,-51.22l0 -314.26c0,-50.66 17.09,-76.06 51.14,-76.06 17.34,0 29.97,5.93 37.59,17.78 7.76,11.86 11.97,29.5 12.75,52.64 12.49,-23.14 25.37,-40.78 38.65,-52.64 13.27,-11.85 30.89,-17.78 52.97,-17.78 22.08,0 43.51,5.93 64.28,17.78 20.77,11.86 31.15,27.66 31.15,47.28 0,13.83 -4.33,25.12 -13.27,34.15 -8.81,9.03 -18.4,13.4 -28.66,13.4 -3.81,0 -13.14,-2.54 -27.87,-7.62 -14.85,-5.08 -27.86,-7.62 -39.17,-7.62 -15.38,0 -27.86,4.38 -37.73,12.98 -9.72,8.75 -17.34,21.59 -22.74,38.67 -5.38,17.07 -9.07,37.39 -11.17,60.96 -1.97,23.56 -3.02,52.21 -3.02,86.08z"/>
  <g id="_1649580233488">
   <path class="fil2" d="M2145.43 2463.78c-68.32,-62 -259.12,-238.43 -302.79,-294.85 -86.61,-102.86 -116.94,-142.74 -180.95,-258.66 -25.18,-47.58 -36.91,-116.27 -48.63,-158.74 -13.77,-49.9 -12.81,-103.55 -7.11,-158.61 3.07,-29.7 11.74,-60.44 32.59,-86 75.25,-92.26 224.36,78.78 268.45,127.64 164.33,213.58 215.01,353.15 287.64,596.17 25.77,86.22 26.35,188.8 50.56,282.56 6.68,25.12 5.47,6.39 11.01,39.26 50,-54.17 81.95,-244.71 89.47,-318.35 26.81,-262.52 -39.78,-587.56 -135.32,-833.13 -21.94,-56.38 -67.75,-160.69 -97.43,-212.98 -8.05,-14.17 -7.27,-16.85 -13.68,-30.54 -17.19,-36.73 -46.24,-79.29 -67.66,-115.75 -85.83,-146.1 -231.66,-324.82 -394.89,-405.4 -275.35,-135.93 -241.95,275.14 -259.25,448.32 -6,60.05 -16.25,107.07 -47.66,158.29 -51.67,84.24 -121.51,181.8 -139.36,308.07 -14.76,104.48 -1.25,207.77 38.03,284 6.81,13.22 9.61,16.32 15.11,29.83 5.51,13.53 5.94,15.95 16.42,29.18 52.45,66.27 46.94,79.32 136.36,156.3 19.17,16.49 34.95,32.18 55.47,47.12 21.75,15.84 43.03,27.94 65.23,42.27 210.24,135.69 467.33,270.87 688.58,407.4 -12.45,-29.43 -37.01,-57.86 -60.19,-83.4z"/>
   <path class="fil3" d="M786.78 3009.96c66.27,28.66 297.3,65.83 366.74,71.63 196.79,16.42 435.87,-19.7 603.36,-103.52 182.37,-91.25 332.19,-197.25 443.22,-375.85 -23.32,5.49 -20.03,7.82 -42.82,19.39l-276.73 113.4c-146.24,49.93 -326.02,89.35 -510.29,38.94 -219.58,-60.08 -103.61,-174.35 58.43,-223.38 154.37,-46.71 318.4,-43.06 483.47,-15.39l210.39 42.73c32.27,4.37 47.18,18.32 66.23,5.05 -23.98,-8.61 -90.74,-58.96 -114.32,-75.97 -36.18,-26.1 -83.31,-53.51 -123.79,-75.41 -214.91,-116.28 -582.79,-243.03 -827.14,-138.71l-52.53 25.93c-68.89,39.22 -120.39,103.74 -139.87,200.35 -10.47,51.93 -6.42,126.44 7.73,178.73 44.97,166.11 -437.02,212.82 -152.08,312.08z"/>
   <path class="fil2" d="M1680.65 3107.68c42.8,-3.44 128.55,-22.92 168.45,-36.27 82.02,-27.44 153.8,-53.01 231.69,-97.79 60.38,-34.71 116.88,-74.29 170.46,-117.37l96.32 -82.12c111.25,-109.02 202.18,-214.84 276.34,-352.28 23.91,-44.32 32.01,-49.31 50.51,-106.21 21.57,-66.36 -46.73,-125.22 -119.71,-119.1 -83.38,6.98 -92.27,66.06 -131.67,144.98 -16.89,33.84 -31.08,70.71 -45.53,99.31 -17.76,35.17 -33.02,67.52 -50.7,98.2 -33.74,58.56 -76.56,119.55 -118.02,168.15 -224.23,262.9 -770.73,419.99 -528.14,400.5z"/>
   <path class="fil2" d="M2608.18 1603.56c45.15,208.48 -12.92,400.47 -78.92,603.5 53.04,87.86 133.49,-432.37 134.97,-465.38 2.76,-61.68 4.75,-240.03 -69.13,-260.25 -41.63,-11.39 -172.5,54.95 13.08,122.13z"/>
   <path class="fil2" d="M2619.03 2233.5c15.55,8.15 5.52,5.96 21.07,14.11 34.62,-98.47 301.07,-341.61 425.26,-376.98 23.39,12.26 44.69,35.2 89.57,21.7 41.78,-12.57 50.57,-54.53 31.87,-77.89 -29.61,-37 -92.53,-26.96 -119.7,-2.33 -19.3,17.48 -6.64,13.6 -33.81,27.04l-75.23 41.1c-126.06,71.56 -298.43,237.78 -339.03,353.25z"/>
  </g>
  <path class="fil4" d="M3627.63 2085.89l-124.74 0 0 439.99c0,25.4 -5.26,44.17 -15.91,56.45 -10.52,12.27 -24.18,18.34 -40.87,18.34 -16.97,0 -30.89,-6.21 -41.54,-18.63 -10.65,-12.41 -16.04,-31.04 -16.04,-56.16l0 -439.99 -124.74 0c-19.59,0 -34.05,-4.65 -43.52,-13.82 -9.46,-9.32 -14.32,-21.59 -14.32,-36.83 0,-15.67 4.99,-28.09 14.85,-37.26 9.86,-9.17 24.19,-13.69 42.99,-13.69l363.84 0c19.85,0 34.44,4.66 44.18,14.12 9.59,9.45 14.45,21.73 14.45,36.83 0,15.24 -4.99,27.51 -14.72,36.83 -9.73,9.17 -24.32,13.82 -43.91,13.82z"/>
  <path id="_1_8" class="fil4" d="M4003.35 2399.16l-205.72 0c0.26,25.68 5.12,48.26 14.46,67.88 9.33,19.61 21.82,34.29 37.33,44.17 15.51,10.01 32.74,14.95 51.39,14.95 12.63,0 24.07,-1.55 34.44,-4.79 10.52,-3.11 20.52,-8.05 30.24,-14.82 9.86,-6.77 18.8,-13.97 26.95,-21.73 8.28,-7.76 18.93,-18.21 32.07,-31.47 5.39,-4.94 13.02,-7.48 23,-7.48 10.79,0 19.59,3.25 26.3,9.6 6.57,6.21 9.99,15.24 9.99,26.81 0,10.16 -3.81,22.01 -11.17,35.7 -7.5,13.55 -18.67,26.67 -33.79,39.09 -14.99,12.56 -33.79,23 -56.53,31.18 -22.73,8.33 -48.89,12.42 -78.34,12.42 -67.56,0 -120.02,-20.74 -157.47,-62.09 -37.47,-41.34 -56.14,-97.37 -56.14,-168.2 0,-33.31 4.6,-64.35 13.81,-92.86 9.2,-28.5 22.74,-52.91 40.35,-73.37 17.75,-20.32 39.57,-35.99 65.47,-46.85 25.89,-10.87 54.68,-16.37 86.22,-16.37 41.15,0 76.38,9.31 105.69,27.94 29.45,18.63 51.4,42.61 66.12,72.25 14.59,29.49 21.95,59.55 21.95,90.17 0,28.36 -7.62,46.85 -22.74,55.31 -15.12,8.33 -36.41,12.56 -63.88,12.56zm-205.72 -64.34l190.6 0c-2.5,-38.53 -12.22,-67.31 -29.05,-86.51 -16.83,-19.05 -38.91,-28.64 -66.38,-28.64 -26.29,0 -47.72,9.74 -64.54,29.07 -16.83,19.47 -27.08,48.12 -30.63,86.08z"/>
  <path id="_2_9" class="fil4" d="M4569 2461.11c0,13.97 -3.94,29.07 -11.83,45.02 -7.76,15.94 -19.72,31.18 -35.75,45.57 -16.04,14.4 -36.28,26.11 -60.74,34.86 -24.31,8.89 -51.78,13.26 -82.41,13.26 -64.94,0 -115.68,-20.32 -152.09,-60.96 -36.54,-40.64 -54.81,-95.11 -54.81,-163.55 0,-46.28 8.41,-87.2 25.1,-122.76 16.7,-35.56 40.88,-63.08 72.43,-82.41 31.68,-19.48 69.41,-29.21 113.31,-29.21 27.21,0 52.19,4.23 74.92,12.84 22.61,8.61 41.94,19.61 57.71,33.16 15.77,13.55 27.87,27.94 36.16,43.18 8.41,15.38 12.61,29.63 12.61,42.9 0,13.55 -4.73,24.98 -14.06,34.43 -9.46,9.31 -20.77,13.97 -34.18,13.97 -8.68,0 -15.91,-2.4 -21.69,-7.2 -5.79,-4.79 -12.22,-12.56 -19.45,-23.28 -12.88,-20.88 -26.29,-36.69 -40.23,-47.13 -14.06,-10.44 -31.81,-15.66 -53.36,-15.66 -31.03,0 -56.14,12.98 -75.07,39.08 -19.05,25.97 -28.52,61.53 -28.52,106.68 0,21.17 2.5,40.64 7.36,58.42 4.86,17.78 11.83,33.02 21.16,45.44 9.21,12.56 20.38,22.02 33.53,28.51 13.01,6.49 27.47,9.73 43.11,9.73 21.04,0 39.04,-5.22 54.03,-15.66 15.11,-10.44 28.39,-26.53 39.95,-47.98 6.32,-12.7 13.29,-22.58 20.78,-29.63 7.36,-7.2 16.56,-10.87 27.34,-10.87 12.88,0 23.53,5.36 31.94,15.81 8.41,10.44 12.75,21.59 12.75,33.44z"/>
  <path id="_3_10" class="fil4" d="M4756.6 2042.71l0 167.22c13.41,-16.51 26.42,-29.63 39.17,-39.23 12.63,-9.59 26.68,-16.93 42.06,-21.73 15.52,-4.8 32.09,-7.2 49.83,-7.2 26.68,0 50.34,6.07 71.11,18.21 20.64,12.13 36.81,29.77 48.64,52.92 7.49,13.4 12.48,28.5 15.12,45.29 2.49,16.65 3.81,35.84 3.81,57.58l0 216.32c0,22.58 -4.86,39.65 -14.46,51.22 -9.59,11.57 -22.48,17.36 -38.39,17.36 -34.7,0 -52.05,-22.86 -52.05,-68.58l0 -190.64c0,-36.13 -4.99,-63.93 -14.99,-83.26 -9.99,-19.47 -29.05,-29.21 -57.05,-29.21 -18.66,0 -35.62,5.79 -50.61,17.22 -14.98,11.43 -26.29,26.95 -33.64,46.85 -5.66,16.79 -8.55,46.7 -8.55,89.74l0 149.3c0,22.3 -4.73,39.23 -14.06,50.94 -9.34,11.71 -22.35,17.64 -38.91,17.64 -34.57,0 -51.93,-22.86 -51.93,-68.58l0 -489.38c0,-22.86 4.61,-39.93 13.68,-51.36 9.06,-11.43 21.82,-17.22 38.25,-17.22 16.56,0 29.57,5.79 38.91,17.36 9.33,11.57 14.06,28.65 14.06,51.22z"/>
  <path id="_4_11" class="fil4" d="M5238.79 2204.15l0 13.68c18.53,-26.24 38.77,-45.43 60.73,-57.71 21.95,-12.28 47.19,-18.35 75.71,-18.35 27.74,0 52.45,6.5 74.41,19.48 21.81,12.84 38.11,31.18 48.89,54.89 6.97,13.83 11.44,28.65 13.55,44.73 1.96,15.95 3.01,36.27 3.01,61.1l0 210.12c0,22.58 -4.86,39.65 -14.45,51.22 -9.6,11.57 -22.22,17.36 -37.6,17.36 -15.64,0 -28.39,-5.93 -38.25,-17.78 -9.72,-11.85 -14.6,-28.79 -14.6,-50.8l0 -188.24c0,-37.12 -4.86,-65.62 -14.45,-85.38 -9.6,-19.61 -28.79,-29.49 -57.57,-29.49 -18.67,0 -35.76,5.93 -51.27,17.92 -15.38,12 -26.68,28.51 -33.78,49.53 -5.13,16.8 -7.76,48.12 -7.76,94.27l0 141.39c0,22.86 -4.99,39.93 -14.85,51.36 -9.86,11.43 -22.62,17.22 -38.13,17.22 -15.11,0 -27.6,-5.93 -37.32,-17.78 -9.74,-11.85 -14.6,-28.79 -14.6,-50.8l0 -326.25c0,-21.45 4.34,-37.54 13.01,-48.12 8.82,-10.58 20.65,-15.95 35.77,-15.95 9.19,0 17.6,2.4 24.97,7.06 7.49,4.66 13.4,11.71 17.88,21.03 4.47,9.31 6.7,20.88 6.7,34.29z"/>
  <path id="_5_12" class="fil4" d="M6026.73 2371.36c0,33.73 -4.86,64.63 -14.59,93 -9.86,28.36 -23.93,52.77 -42.46,73.09 -18.4,20.46 -40.62,35.99 -66.25,46.85 -25.63,10.87 -54.56,16.37 -86.63,16.37 -31.94,0 -60.6,-5.5 -85.96,-16.51 -25.38,-11.01 -47.46,-26.81 -66.12,-47.41 -18.54,-20.46 -32.74,-44.74 -42.33,-72.68 -9.6,-28.08 -14.46,-58.98 -14.46,-92.85 0,-34.15 4.86,-65.47 14.59,-93.84 9.85,-28.36 23.79,-52.63 42.07,-72.81 18.26,-20.04 40.35,-35.56 66.25,-46.43 25.89,-10.86 54.55,-16.37 85.96,-16.37 31.81,0 60.74,5.51 86.63,16.51 25.89,11.01 48.11,26.82 66.64,47.28 18.54,20.32 32.61,44.59 42.2,72.81 9.6,28.08 14.46,59.13 14.46,92.99zm-105.69 0c0,-46 -9.47,-81.7 -28.26,-107.38 -18.92,-25.54 -44.17,-38.38 -75.98,-38.38 -20.63,0 -38.64,5.64 -54.29,17.07 -15.64,11.43 -27.73,28.36 -36.14,50.66 -8.55,22.29 -12.76,48.4 -12.76,78.03 0,29.5 4.21,55.32 12.5,77.33 8.41,22.02 20.24,38.95 35.75,50.66 15.51,11.71 33.91,17.5 54.94,17.5 31.81,0 57.06,-12.84 75.98,-38.66 18.79,-25.69 28.26,-61.39 28.26,-106.83z"/>
  <path id="_6_13" class="fil4" d="M6122.71 2532.09l0 -489.38c0,-22.57 4.74,-39.65 14.07,-51.22 9.33,-11.57 21.95,-17.36 37.86,-17.36 15.77,0 28.65,5.79 38.38,17.22 9.73,11.43 14.59,28.5 14.59,51.36l0 489.38c0,22.86 -4.99,39.93 -14.85,51.36 -9.86,11.43 -22.61,17.22 -38.12,17.22 -15.38,0 -27.87,-5.93 -37.47,-17.78 -9.59,-11.85 -14.46,-28.79 -14.46,-50.8z"/>
  <path id="_7_14" class="fil4" d="M6743.19 2371.36c0,33.73 -4.86,64.63 -14.59,93 -9.86,28.36 -23.93,52.77 -42.46,73.09 -18.4,20.46 -40.62,35.99 -66.25,46.85 -25.63,10.87 -54.56,16.37 -86.63,16.37 -31.94,0 -60.6,-5.5 -85.96,-16.51 -25.38,-11.01 -47.46,-26.81 -66.12,-47.41 -18.54,-20.46 -32.74,-44.74 -42.33,-72.68 -9.6,-28.08 -14.46,-58.98 -14.46,-92.85 0,-34.15 4.86,-65.47 14.59,-93.84 9.85,-28.36 23.79,-52.63 42.07,-72.81 18.26,-20.04 40.35,-35.56 66.25,-46.43 25.89,-10.86 54.55,-16.37 85.96,-16.37 31.81,0 60.74,5.51 86.63,16.51 25.89,11.01 48.11,26.82 66.64,47.28 18.54,20.32 32.61,44.59 42.2,72.81 9.6,28.08 14.46,59.13 14.46,92.99zm-105.69 0c0,-46 -9.47,-81.7 -28.26,-107.38 -18.92,-25.54 -44.17,-38.38 -75.98,-38.38 -20.63,0 -38.64,5.64 -54.29,17.07 -15.64,11.43 -27.73,28.36 -36.14,50.66 -8.55,22.29 -12.76,48.4 -12.76,78.03 0,29.5 4.21,55.32 12.5,77.33 8.41,22.02 20.24,38.95 35.75,50.66 15.51,11.71 33.91,17.5 54.94,17.5 31.81,0 57.06,-12.84 75.98,-38.66 18.79,-25.69 28.26,-61.39 28.26,-106.83z"/>
  <path id="_8_15" class="fil4" d="M7225.64 2224.75l0 327.8c0,37.54 -3.68,69.71 -11.18,96.66 -7.49,27.1 -19.32,49.39 -35.75,67.03 -16.43,17.64 -37.99,30.76 -64.54,39.23 -26.56,8.61 -59.68,12.84 -99.11,12.84 -36.29,0 -68.62,-5.5 -97.14,-16.37 -28.4,-10.86 -50.35,-24.98 -65.86,-42.19 -15.38,-17.22 -23.01,-34.86 -23.01,-53.06 0,-13.83 4.34,-24.98 13.01,-33.72 8.81,-8.61 19.33,-12.99 31.68,-12.99 15.38,0 28.93,7.2 40.49,21.88 5.65,7.33 11.57,14.81 17.48,22.43 6.05,7.48 12.76,13.97 19.98,19.33 7.36,5.37 16.18,9.46 26.43,12 10.25,2.68 22.08,3.95 35.35,3.95 27.21,0 48.25,-4.09 63.24,-12.14 15.11,-8.18 25.63,-19.47 31.55,-34.14 6.04,-14.54 9.59,-30.2 10.64,-46.85 1.05,-16.65 1.84,-43.32 2.23,-80.3 -16.16,24.28 -34.83,42.76 -55.99,55.32 -21.17,12.7 -46.4,19.05 -75.59,19.05 -35.23,0 -65.99,-9.6 -92.28,-28.93 -26.28,-19.33 -46.53,-46.28 -60.59,-81.14 -14.07,-34.71 -21.17,-74.79 -21.17,-120.22 0,-34.01 4.34,-64.63 12.89,-91.87 8.67,-27.23 20.9,-50.37 36.8,-69 15.9,-18.77 34.18,-32.88 55.08,-42.48 20.77,-9.45 43.65,-14.25 68.49,-14.25 29.71,0 55.6,6.21 77.42,18.49 21.82,12.27 42.07,31.61 60.73,57.85l0 -15.38c0,-19.61 4.6,-34.85 13.54,-45.58 8.93,-10.86 20.5,-16.23 34.7,-16.23 20.24,0 33.79,7.2 40.48,21.45 6.71,14.26 10,34.72 10,61.53zm-304.44 143.09c0,45.72 9.33,80.29 27.87,103.71 18.67,23.43 42.59,35.14 72.16,35.14 17.36,0 33.92,-5.08 49.43,-15.1 15.51,-10.02 28.13,-25.26 37.86,-45.44 9.72,-20.32 14.59,-44.87 14.59,-73.8 0,-46 -9.47,-81.84 -28.27,-107.53 -18.8,-25.54 -43.64,-38.38 -74.4,-38.38 -29.97,0 -54.02,12.28 -72.16,36.83 -18.01,24.56 -27.08,59.41 -27.08,104.57z"/>
  <path id="_9_16" class="fil4" d="M7450.19 2205.84l0 326.25c0,22.58 -5,39.65 -14.99,51.22 -9.99,11.57 -22.61,17.36 -37.99,17.36 -15.38,0 -27.87,-5.93 -37.47,-17.78 -9.59,-11.85 -14.45,-28.79 -14.45,-50.8l0 -322.86c0,-22.44 4.86,-39.23 14.45,-50.52 9.6,-11.29 22.09,-16.94 37.47,-16.94 15.38,0 28,5.65 37.99,16.94 9.99,11.29 14.99,27.09 14.99,47.13zm-51.93 -116.56c-14.6,0 -27.08,-4.8 -37.46,-14.39 -10.39,-9.6 -15.51,-23.29 -15.51,-40.92 0,-15.81 5.25,-28.93 15.9,-39.23 10.64,-10.3 23.01,-15.53 37.07,-15.53 13.67,0 25.64,4.66 36.15,13.97 10.51,9.46 15.78,23.01 15.78,40.79 0,17.35 -5.14,30.9 -15.38,40.64 -10.26,9.73 -22.35,14.67 -36.55,14.67z"/>
  <path id="_10_17" class="fil4" d="M7865.46 2399.16l-205.72 0c0.26,25.68 5.13,48.26 14.46,67.88 9.33,19.61 21.83,34.29 37.34,44.17 15.51,10.01 32.73,14.95 51.39,14.95 12.62,0 24.06,-1.55 34.44,-4.79 10.51,-3.11 20.51,-8.05 30.23,-14.82 9.86,-6.77 18.8,-13.97 26.95,-21.73 8.29,-7.76 18.93,-18.21 32.08,-31.47 5.38,-4.94 13.01,-7.48 23,-7.48 10.78,0 19.59,3.25 26.29,9.6 6.57,6.21 9.99,15.24 9.99,26.81 0,10.16 -3.81,22.01 -11.17,35.7 -7.5,13.55 -18.67,26.67 -33.79,39.09 -14.98,12.56 -33.78,23 -56.52,31.18 -22.74,8.33 -48.9,12.42 -78.34,12.42 -67.57,0 -120.02,-20.74 -157.48,-62.09 -37.47,-41.34 -56.13,-97.37 -56.13,-168.2 0,-33.31 4.6,-64.35 13.8,-92.86 9.21,-28.5 22.74,-52.91 40.36,-73.37 17.74,-20.32 39.57,-35.99 65.46,-46.85 25.89,-10.87 54.69,-16.37 86.23,-16.37 41.14,0 76.37,9.31 105.69,27.94 29.44,18.63 51.39,42.61 66.12,72.25 14.59,29.49 21.95,59.55 21.95,90.17 0,28.36 -7.62,46.85 -22.74,55.31 -15.12,8.33 -36.42,12.56 -63.89,12.56zm-205.72 -64.34l190.6 0c-2.49,-38.53 -12.22,-67.31 -29.04,-86.51 -16.83,-19.05 -38.91,-28.64 -66.38,-28.64 -26.3,0 -47.72,9.74 -64.55,29.07 -16.82,19.47 -27.08,48.12 -30.63,86.08z"/>
  <path id="_11_18" class="fil4" d="M8392.34 2453.35c0,31.04 -7.1,57.71 -21.17,79.87 -14.06,22.15 -34.96,38.95 -62.57,50.38 -27.6,11.43 -61.12,17.07 -100.69,17.07 -37.72,0 -70.06,-6.21 -97.01,-18.63 -26.95,-12.27 -46.79,-27.8 -59.67,-46.42 -12.75,-18.49 -19.2,-37.11 -19.2,-55.88 0,-12.42 4.08,-23 12.36,-31.75 8.15,-8.89 18.54,-13.27 31.15,-13.27 11.05,0 19.46,2.97 25.38,8.75 5.91,5.79 11.56,13.83 16.95,24.41 10.78,20.04 23.66,35.14 38.65,45.02 14.98,10.02 35.49,14.96 61.39,14.96 21.02,0 38.25,-5.08 51.65,-15.1 13.55,-10.02 20.24,-21.59 20.24,-34.57 0,-19.9 -6.96,-34.3 -20.89,-43.47 -14.07,-9.03 -37.08,-17.78 -69.15,-26.1 -36.14,-9.6 -65.59,-19.76 -88.33,-30.34 -22.61,-10.59 -40.75,-24.7 -54.42,-42.05 -13.54,-17.36 -20.38,-38.81 -20.38,-64.07 0,-22.72 6.32,-44.02 18.8,-64.2 12.62,-20.18 31.16,-36.13 55.73,-48.12 24.46,-12 54.03,-18.07 88.73,-18.07 27.21,0 51.66,2.97 73.22,9.04 21.7,6.06 39.83,14.25 54.29,24.41 14.6,10.3 25.64,21.59 33.13,34.01 7.62,12.41 11.43,24.41 11.43,36.4 0,12.84 -4.08,23.57 -12.22,31.75 -8.02,8.33 -19.59,12.42 -34.45,12.42 -10.77,0 -19.97,-3.24 -27.6,-9.88 -7.49,-6.63 -16.17,-16.51 -26.02,-29.77 -7.89,-11.01 -17.22,-19.9 -28.01,-26.53 -10.77,-6.63 -25.36,-9.88 -43.9,-9.88 -18.93,0 -34.7,4.38 -47.32,12.98 -12.48,8.75 -18.8,19.62 -18.8,32.6 0,11.85 4.6,21.59 13.81,29.07 9.33,7.62 21.68,13.97 37.33,18.91 15.64,4.94 37.2,11.01 64.67,18.2 32.6,8.47 59.28,18.77 79.92,30.62 20.64,11.86 36.29,25.83 46.94,42.05 10.64,16.09 16.03,34.44 16.03,55.18z"/>
 </g>
</svg>
